<svg xmlns="http://www.w3.org/2000/svg" viewBox="0 0 180 180"><defs><style>.cls-1{isolation:isolate;}.cls-2{fill:none;}.cls-3{fill:#2e7d32;}.cls-4{fill:#fff;}.cls-5{fill:#544f4a;}.cls-5,.cls-6,.cls-7,.cls-8,.cls-9{mix-blend-mode:multiply;}.cls-6{fill:#e8e2dd;}.cls-7{fill:#938d87;}.cls-8{fill:#dce5e5;}.cls-9{fill:#f4dca6;}</style></defs><title>icon-Icon</title><g class="cls-1"><g id="Capa_1" data-name="Capa 1"><path d="M33.65,33.31H22.55V47H21.37V15h10.2a11.24,11.24,0,0,1,7.66,2.48,8.49,8.49,0,0,1,2.85,6.75A8.69,8.69,0,0,1,40,30a8.6,8.6,0,0,1-5.17,3l8.55,13.69V47H42.15Zm-11.1-1.19H32.64a8.13,8.13,0,0,0,6-2.24,7.6,7.6,0,0,0,2.27-5.65,7.34,7.34,0,0,0-2.52-5.89,10.25,10.25,0,0,0-6.89-2.15H22.55Z"/><path d="M161.49,36.2a11.16,11.16,0,0,1-3.41,7.59,11.52,11.52,0,0,1-8,2.65,10.74,10.74,0,0,1-6-1.72,11.31,11.31,0,0,1-4.08-4.9,17.53,17.53,0,0,1-1.47-7.26V27.6a17.84,17.84,0,0,1,1.43-7.31,11.3,11.3,0,0,1,4.08-5,10.73,10.73,0,0,1,6.08-1.76,11.57,11.57,0,0,1,8,2.64,11,11,0,0,1,3.43,7.56h-1.19A10.17,10.17,0,0,0,157.23,17a10.35,10.35,0,0,0-7.14-2.3,9.24,9.24,0,0,0-7.53,3.52q-2.87,3.52-2.87,9.43v4.7A16.55,16.55,0,0,0,141,39.09a10.37,10.37,0,0,0,3.66,4.54,9.46,9.46,0,0,0,5.46,1.63A10.52,10.52,0,0,0,157.26,43a10,10,0,0,0,3-6.79Z"/><path d="M81,92.48V106H79.84V74h10q4.9,0,7.61,2.47a8.82,8.82,0,0,1,2.71,6.87,8.56,8.56,0,0,1-2.65,6.72Q94.87,92.44,90,92.48Zm0-1.19h8.81a10,10,0,0,0,6.73-2.09A7.3,7.3,0,0,0,99,83.39a7.7,7.7,0,0,0-2.41-6,9.72,9.72,0,0,0-6.73-2.16H81Z"/><path d="M31.26,152.31H20.17V166H19V134h10.2a11.24,11.24,0,0,1,7.66,2.48,8.49,8.49,0,0,1,2.84,6.75,8.69,8.69,0,0,1-2,5.72,8.6,8.6,0,0,1-5.17,3L41,165.69V166H39.77Zm-11.1-1.19H30.25a8.13,8.13,0,0,0,6-2.24,7.6,7.6,0,0,0,2.27-5.65A7.34,7.34,0,0,0,36,137.34a10.25,10.25,0,0,0-6.89-2.15H20.17Z"/><path d="M90,151.52l11.21-18.76h1.45L90.59,152.6v12.15H89.41V152.6L77.34,132.76h1.58Z"/><path class="cls-2" d="M138,138h24v24H138Z"/><circle class="cls-3" cx="150" cy="150" r="16.13"/><path class="cls-4" d="M150.59,156h-1.19V144h1.19Z"/><path class="cls-4" d="M156,149.41v1.19H144v-1.19Z"/><path class="cls-5" d="M42.39,76.47l.07-.06c.41-.54.72-1.14,1.13-1.66a.28.28,0,0,0,0-.28.31.31,0,0,0-.39-.17.3.3,0,0,0-.12.09h0a4.26,4.26,0,0,0-1,1.89v.09A.18.18,0,0,0,42.39,76.47Z"/><path class="cls-5" d="M46.56,73.52a.94.94,0,0,0-.32-.4l-.06.09.06-.09A.94.94,0,0,0,45.3,73a1.74,1.74,0,0,0-.63.48,2.13,2.13,0,0,0-1.91,0,12.4,12.4,0,0,0-2.58,1.75,29.71,29.71,0,0,0-4.88,5.09c-1.57,2-3,4-4.56,6s-3,4.16-5.14,5.18a62,62,0,0,0-7.52,3.8.2.2,0,0,0-.08.11v0a12,12,0,0,0-3.89,3.76,6.48,6.48,0,0,0-1,5.27,3.49,3.49,0,0,0,.14.39,3.15,3.15,0,0,0,1.83,1.73,6.85,6.85,0,0,0,2.58.4A10.82,10.82,0,0,0,23.85,105a10.62,10.62,0,0,0,4.28-7.46c.1-1,.07-2,.2-3a4.94,4.94,0,0,1,1.53-3.05,31.91,31.91,0,0,1,2.75-2.17c2-1.49,3.94-3,5.86-4.51a57.31,57.31,0,0,0,5.91-5.32,21.08,21.08,0,0,0,1.85-2.07A5,5,0,0,0,47,76.13a1.83,1.83,0,0,0,0-1.31,1.65,1.65,0,0,0-.42-.58A.88.88,0,0,0,46.56,73.52ZM18.16,95.76a.2.2,0,0,0,.12,0l0,0a52.71,52.71,0,0,1,6.6-3.27,9.9,9.9,0,0,0,2.75-1.67,21.86,21.86,0,0,0,2.11-2.36c3-3.68,5.53-7.78,8.89-11.12a22.85,22.85,0,0,1,2.78-2.42,8.42,8.42,0,0,1,1.55-1,2.2,2.2,0,0,1,.84-.19,1.23,1.23,0,0,1,.77.26.23.23,0,0,0,.23,0l.09-.08h0a1.27,1.27,0,0,1,.51-.47.65.65,0,0,1,.19,0,.52.52,0,0,1,.31.08.55.55,0,0,1,.22.24.3.3,0,0,1-.09.36.26.26,0,0,0-.07.28.24.24,0,0,0,.08.1,1.21,1.21,0,0,1,.4.5,1.55,1.55,0,0,1-.12,1.24,5.58,5.58,0,0,1-.77,1.17c-.72.88-1.5,1.72-2.3,2.53a56.66,56.66,0,0,1-4.81,4.25c-1.69,1.35-3.43,2.64-5.16,3.95l-2.62,2a9.09,9.09,0,0,0-2.08,2c-1,1.49-.91,3.29-1,5a10.41,10.41,0,0,1-1.87,5.27,10,10,0,0,1-4.28,3.43l-.38.15c-1.8.67-4.33,1.07-6.09.17a2.56,2.56,0,0,1-1.24-1.33,6.14,6.14,0,0,1,.53-4.69A12.68,12.68,0,0,1,18.16,95.76Z"/><polygon class="cls-5" points="18.07 95.39 18.07 95.39 18.07 95.39 18.07 95.39"/><path class="cls-5" d="M14.67,104.05a2.39,2.39,0,0,0,1.53,1.34,2.49,2.49,0,0,0,1.77-.07,2.57,2.57,0,0,0,1.22-1.06c.16-.27.24-.56.36-.81a1,1,0,0,1,.59-.53l.29-.12a2.2,2.2,0,0,0,.33-.17.92.92,0,0,0,.36-.38.64.64,0,0,0,0-.53v0a.58.58,0,0,0-.13-.17.77.77,0,0,1-.11-.11,1.23,1.23,0,0,1-.12-.22.6.6,0,0,1,.08-.66c.2-.25.52-.4.78-.67a1.46,1.46,0,0,0,.32-.5.82.82,0,0,0,0-.61l0-.09a.89.89,0,0,0-.5-.36l-.2-.05-.14,0a.64.64,0,0,1-.23-.23s0-.05,0-.08a.36.36,0,0,1,.14-.09,1.23,1.23,0,0,1,.35-.08,1.13,1.13,0,0,1,.39.07,1.91,1.91,0,0,0,.46.1,1.61,1.61,0,0,0,.69-.12l.2-.1a1.1,1.1,0,0,0,.52-1.27l0-.12a1.06,1.06,0,0,0-.28-.4.93.93,0,0,0-.23-.14h0l.12-.12a3.31,3.31,0,0,0,.38-.36.54.54,0,0,0,.07-.57l0,0a.73.73,0,0,0-.64-.43,1.32,1.32,0,0,0-.34,0l0-.05-.09,0a11.48,11.48,0,0,0-1.18.42,12.65,12.65,0,0,0-5.35,4.23,9.18,9.18,0,0,0-1.21,2.46A4.06,4.06,0,0,0,14.67,104.05Zm2.14-5.68a15.19,15.19,0,0,1,5.11-3.62.18.18,0,0,0,.08.07.19.19,0,0,0,.15,0h0l.25-.11a1.23,1.23,0,0,1,.33-.1,1.19,1.19,0,0,1,.4.4.14.14,0,0,1,0,.1.21.21,0,0,1-.09.1h0l-.16.12h0a.94.94,0,0,0-.35.46.2.2,0,0,0,0,.14.18.18,0,0,0,.15.11h0a.57.57,0,0,1,.51.34.85.85,0,0,1-.45,1h0a1.17,1.17,0,0,1-.75,0,2.58,2.58,0,0,0-.84-.11.81.81,0,0,0-.23.06.83.83,0,0,0-.38.31.51.51,0,0,0-.05.48.61.61,0,0,0,.15.21.84.84,0,0,0,.4.19,1.18,1.18,0,0,1,.34.11.63.63,0,0,1,.27.27.36.36,0,0,1,0,.32,2.16,2.16,0,0,1-.52.55,4.5,4.5,0,0,0-.54.47,1.07,1.07,0,0,0-.26.84.67.67,0,0,0,0,.13,1.09,1.09,0,0,0,.14.23,1,1,0,0,0,.14.13l.09.1,0,.09a.45.45,0,0,1,0,.24.3.3,0,0,1-.15.21,2.12,2.12,0,0,1-.34.17h0l-.09,0-.16.07a1.31,1.31,0,0,0-.72.57,5.75,5.75,0,0,1-.81,1.43,2.19,2.19,0,0,1-3.2-.2,2.24,2.24,0,0,1-.35-.57,3.75,3.75,0,0,1,.25-2.87A10.44,10.44,0,0,1,16.8,98.37Z"/><path class="cls-5" d="M23.72,102.49a8.5,8.5,0,0,1-3,2.24,5.2,5.2,0,0,1-1.91.42h-.11v.24h.1A4.69,4.69,0,0,0,21,105a8.57,8.57,0,0,0,2.89-2.17c1.11-1.21,2.29-3.05,1.86-4.83l0-.08h-.22v.11a5.92,5.92,0,0,1-.42,2.36A7.83,7.83,0,0,1,23.72,102.49Z"/><path class="cls-5" d="M23.95,101.69l.09.07.06-.1a4.56,4.56,0,0,0,.75-1.81v-.09l-.12,0-.09,0,0,.09c-.12.29-.19.59-.3.86a6.38,6.38,0,0,1-.43.88l0,.08Z"/><path class="cls-5" d="M23.92,100.51l-.17.4,0,.1.15.06.09,0,0-.09.19-.36a1,1,0,0,0,.16-.38v-.07l-.1-.06-.07,0-.06.05a1,1,0,0,0-.2.35Z"/><polygon class="cls-5" points="23.53 100.56 23.53 100.56 23.53 100.56 23.53 100.56"/><path class="cls-5" d="M23.61,100.76a.15.15,0,0,0,.12,0l.08-.08.07-.18a.63.63,0,0,0,.06-.2v-.08l-.11,0-.07,0-.05.05a.63.63,0,0,0-.1.18h0l-.08.18a.15.15,0,0,0,0,.12A.15.15,0,0,0,23.61,100.76Zm.2-.29h0Z"/><polygon class="cls-5" points="40.32 81.52 40.32 81.52 40.32 81.52 40.32 81.52"/><polygon class="cls-5" points="26.64 98.25 26.64 98.25 26.64 98.25 26.64 98.25"/><path class="cls-5" d="M26.65,98.3a.14.14,0,0,0,.09.08h.1a.14.14,0,0,0,.09-.14h0A10.26,10.26,0,0,1,27.61,93a11,11,0,0,1,3.66-3.77q2.35-1.72,4.63-3.53a49.39,49.39,0,0,0,4.63-3.92.16.16,0,0,0,0-.18l-.08-.08a.16.16,0,0,0-.13,0l0,0c-1.75,1.28-3.35,2.77-5,4.1S32,88.07,30.4,89.34a9.92,9.92,0,0,0-3.26,3.84,10.94,10.94,0,0,0-.5,5.07Zm.06-.06Z"/><polygon class="cls-5" points="26.64 98.25 26.64 98.25 26.64 98.25 26.64 98.25"/><path class="cls-5" d="M41.25,81.13l0,0h0a24.39,24.39,0,0,0,2.15-2.22.15.15,0,0,0,0-.15l-.07-.08a.15.15,0,0,0-.12,0l0,0h0a24.3,24.3,0,0,0-2.15,2.22h0a.14.14,0,0,0,0,.15l.07.08A.14.14,0,0,0,41.25,81.13Z"/><polygon class="cls-5" points="43.45 78.87 43.45 78.87 43.45 78.87 43.45 78.87"/><path class="cls-5" d="M43.84,78a.15.15,0,0,0-.09.09v.11l.07.08a.15.15,0,0,0,.21-.09v-.11L44,78A.15.15,0,0,0,43.84,78Zm.08.1h0v0Zm-.06,0Zm0,0h0v0Z"/><path class="cls-5" d="M43.1,76.57v.12a.17.17,0,0,0,.08.09.16.16,0,0,0,.13,0l0,0-.07-.08.07.08a7.83,7.83,0,0,0,.91-.94c.09-.11.24-.23.37-.37a.75.75,0,0,0,.23-.53v0l-.08-.08,0,0h0a.54.54,0,0,0-.23,0c-.28.12-.46.43-.62.6A4.3,4.3,0,0,0,43.1,76.57Z"/><path class="cls-5" d="M44.75,76.16a5.48,5.48,0,0,0-.68.38.18.18,0,0,0-.07.1v.11a.2.2,0,0,0,.19.12,2.21,2.21,0,0,0,.75-.17,1.38,1.38,0,0,0,.71-.59.16.16,0,0,0,0-.14.18.18,0,0,0-.18-.11h0a1.19,1.19,0,0,0-.35.09C45,76,44.88,76.1,44.75,76.16Z"/><polygon class="cls-5" points="45.66 76.13 45.66 76.13 45.66 76.13 45.66 76.13"/><path class="cls-5" d="M14.58,104.61l-.07-.08-.08.07,0,0-.08.07.06.08A3.72,3.72,0,0,0,16,106l.1,0,.05-.13,0-.09-.09,0A4.71,4.71,0,0,1,14.58,104.61Z"/><path class="cls-5" d="M25.74,97l.13,0H26v-.11a19.3,19.3,0,0,1,.54-2.64l0-.1-.14,0-.09,0,0,.09a7.19,7.19,0,0,0-.56,2.7Z"/><path class="cls-5" d="M25.52,96.33l0-.1a4.57,4.57,0,0,1,.2-.83,3.79,3.79,0,0,0,.26-.69v-.07l-.09-.05-.07,0-.06.06a.87.87,0,0,0-.14.18l-.06-.08-.06-.07-.08,0a.87.87,0,0,0-.37.72v.1l.14,0h.11V95.4a.78.78,0,0,1,.09-.29,2,2,0,0,1,.16-.21,4.17,4.17,0,0,0-.15.44,4.88,4.88,0,0,0-.17.85v.11l.15,0Z"/><polygon class="cls-5" points="25.04 94.85 25.02 94.82 24.82 94.9 24.84 94.94 24.94 94.9 25.04 94.85"/><path class="cls-5" d="M26.48,96.7l-.13,0-.09,0,0,.09a3.89,3.89,0,0,0-.12,1.86v.11l.16,0h.1v-.1a9.41,9.41,0,0,1,.1-1.77Z"/><path class="cls-5" d="M25.86,97.92a.15.15,0,0,0,.09-.17.93.93,0,0,1,0-.28.91.91,0,0,0,0-.29v-.06l-.06,0-.05,0-.06,0-.05,0a.5.5,0,0,0-.14.36,1.46,1.46,0,0,0,0,.34v0a.16.16,0,0,0,.1.09A.16.16,0,0,0,25.86,97.92Z"/><path class="cls-6" d="M16.46,99.16c-.63,1.31-.88,3,.14,4.08a2.33,2.33,0,0,0,1.16.62,3.45,3.45,0,0,0,2.05-.21,8.71,8.71,0,0,0,2.69-2.1C28.19,95.74,19.13,93.6,16.46,99.16Z"/><path class="cls-7" d="M96.49,22.07l-.28.16a3.74,3.74,0,0,1-.65.18.11.11,0,0,0,0,.22h.2a1.76,1.76,0,0,0,.53-.12,1.59,1.59,0,0,0,.33-.16.52.52,0,0,0,.22-.28v0L96.82,22l0,0h0A.85.85,0,0,0,96.49,22.07Z"/><path class="cls-7" d="M95.62,22.08a.15.15,0,0,0-.09.14l0,.09.1,0h0a1.41,1.41,0,0,0,.7-.41l0,0-.06-.09,0,0h0A5.33,5.33,0,0,0,95.62,22.08Z"/><path class="cls-7" d="M88.2,23.35a.34.34,0,0,0,.15.28l.08,0a.17.17,0,0,0,.16-.17v0a.58.58,0,0,1-.07-.18v0a.15.15,0,0,0-.15-.15.14.14,0,0,0-.12.07A.4.4,0,0,0,88.2,23.35Z"/><path class="cls-7" d="M88.72,23.23a.55.55,0,0,0,0,.17.24.24,0,0,0,.16.24h.08a.21.21,0,0,0,.12,0,.15.15,0,0,0,.06-.13v-.06l-.05,0h0l0,0,0-.1h0l0-.1-.09,0A.14.14,0,0,0,88.72,23.23Z"/><path class="cls-7" d="M89.25,23.34a.27.27,0,0,0,0,.15.17.17,0,0,0,.15.07h0l.07-.07,0,0v0h0a.19.19,0,0,0,0-.11l0,0h0v0a.12.12,0,0,0-.13-.11l-.1.06A.3.3,0,0,0,89.25,23.34Z"/><path class="cls-7" d="M89.8,23.27l0,.07.06.08a.16.16,0,0,0,.12.07l.06,0,0,0,0,0,.06-.11a.36.36,0,0,0-.07-.17.13.13,0,0,0-.11-.06A.14.14,0,0,0,89.8,23.27Z"/><path class="cls-7" d="M90.42,23.3v.07a.17.17,0,0,0,.18.16.16.16,0,0,0,.16-.13h0v-.07a.17.17,0,0,0-.18-.16A.16.16,0,0,0,90.42,23.3Z"/><path class="cls-7" d="M87.09,15.33a.22.22,0,0,0,.15.2h.11a.31.31,0,0,0,.17,0,.29.29,0,0,0,.28-.23v-.07a.23.23,0,0,0-.09-.17.39.39,0,0,0-.17-.08h-.09a.43.43,0,0,0-.32.16A.22.22,0,0,0,87.09,15.33Z"/><path class="cls-7" d="M85.43,16.39h0a.31.31,0,0,0,.15-.27v0a.27.27,0,0,0-.28-.22h0a.33.33,0,0,0-.33.34.24.24,0,0,0,.12.21.28.28,0,0,0,.15,0,.34.34,0,0,0,.17-.05h0Z"/><path class="cls-7" d="M90.34,15.34v0a.39.39,0,0,0,.38.27h0a.24.24,0,0,0,.19-.09.27.27,0,0,0,.05-.18v-.09h0a.3.3,0,0,0-.09-.21.28.28,0,0,0-.2-.08h-.08A.36.36,0,0,0,90.34,15.34Z"/><path class="cls-7" d="M89.33,16.4a.35.35,0,0,0-.32-.17.37.37,0,0,0-.36.37h0a.35.35,0,0,0,.09.22h0a.28.28,0,0,0,.14.14A.32.32,0,0,0,89,17a.39.39,0,0,0,.28-.13.38.38,0,0,0,.09-.26A.42.42,0,0,0,89.33,16.4Z"/><path class="cls-7" d="M87.14,17.43h0l0,.12a.22.22,0,0,0,.11.17.37.37,0,0,0,.21.06.24.24,0,0,0,.24-.2v-.06a.26.26,0,0,0-.28-.23.25.25,0,0,0-.19.09h0Z"/><path class="cls-7" d="M88.59,14h.06l0-.1v0h-.36a6.89,6.89,0,0,0-3.58,1.31l0,0,.05.08,0,0,0,0A10.78,10.78,0,0,1,88.59,14Z"/><path class="cls-7" d="M89.39,13.83h0l.19,0h.08c.1,0,.18,0,.25,0H90l0-.09v-.06H90a1.06,1.06,0,0,0-.31-.09h0l-.28,0a.13.13,0,0,0-.1.13l0,.09Z"/><path class="cls-7" d="M91,13.76a.1.1,0,0,0,.08.1h0a.11.11,0,0,0,.1-.11.1.1,0,0,0-.08-.1h0A.11.11,0,0,0,91,13.76Z"/><path class="cls-7" d="M93.2,17.6v.18h0a.28.28,0,0,0,.26.15.32.32,0,0,0,.21-.08h0v0l0-.11h0v-.06a.25.25,0,0,0-.18-.24h-.07A.37.37,0,0,0,93.2,17.6Z"/><path class="cls-7" d="M93.94,16l-.12,0a.26.26,0,0,0-.21.13.43.43,0,0,0-.07.24.27.27,0,0,0,.13.23h0l.12,0a.3.3,0,0,0,.27-.22v-.06a.23.23,0,0,0,0-.11v0h0A.2.2,0,0,0,93.94,16Z"/><path class="cls-7" d="M91.7,17.36a.23.23,0,0,0-.11-.18h0v0a.17.17,0,0,0-.13-.06.2.2,0,0,0-.2.2v.08h0a.22.22,0,0,0,.22.2l.11,0A.21.21,0,0,0,91.7,17.36Z"/><path class="cls-7" d="M96.09,17.35H96a.18.18,0,0,0-.13.18.2.2,0,0,0,0,.13.17.17,0,0,0,.12.05h.09l.43,0-.33,0,0-.1a.18.18,0,0,0-.19-.18Z"/><path class="cls-7" d="M95.48,15.77v.08a.24.24,0,0,0,.26.17.41.41,0,0,0,.19-.05h0a.19.19,0,0,0,.1-.17l0-.09h0a.34.34,0,0,0-.1-.23.19.19,0,0,0-.15-.06l-.1,0A.36.36,0,0,0,95.48,15.77Z"/><path class="cls-7" d="M92.82,14.52l0,.08a.18.18,0,0,0,.18.17h0l.07,0a.19.19,0,0,0,.19-.19l0-.09a.26.26,0,0,0-.22-.12A.19.19,0,0,0,92.82,14.52Z"/><path class="cls-7" d="M94.7,19.34h.06A.23.23,0,0,0,95,19.1a.21.21,0,0,0-.17-.21h-.06a.23.23,0,0,0-.21.24A.21.21,0,0,0,94.7,19.34Z"/><path class="cls-7" d="M91.48,19a.27.27,0,0,0-.21-.26h-.08a.28.28,0,0,0-.26.3.26.26,0,0,0,.21.26h.08A.28.28,0,0,0,91.48,19Z"/><path class="cls-7" d="M94.2,23.56a.22.22,0,0,0,.17.21h.06a.23.23,0,0,0,.21-.24.22.22,0,0,0-.17-.21h-.06A.23.23,0,0,0,94.2,23.56Z"/><path class="cls-7" d="M93.35,23.55a.17.17,0,0,0-.13-.16h0a.18.18,0,0,0-.17.19.17.17,0,0,0,.13.16h0A.18.18,0,0,0,93.35,23.55Z"/><path class="cls-7" d="M98,16.75l0,.09A1.72,1.72,0,0,1,98.52,18,5,5,0,0,1,98,20v0l.06.07,0,0,0,0c.62-.27.7-1.07.72-1.63,0-.09,0-.17,0-.26a2.19,2.19,0,0,0-.61-1.57l-.1,0A.14.14,0,0,0,98,16.75Z"/><path class="cls-7" d="M98.46,18.09a1.78,1.78,0,0,0-.17-.7.14.14,0,0,0-.13-.08.16.16,0,0,0-.16.15v0a1.21,1.21,0,0,1,.09.42,3.2,3.2,0,0,1-.2,1v0L98,19l0,0,0,0A1,1,0,0,0,98.46,18.09Z"/><path class="cls-7" d="M97.94,17.81a.12.12,0,0,0-.12-.1l-.07,0,0,.08h0v0c0,.1,0,.2,0,.31a.63.63,0,0,0,0,.14v0h.11l0,0A.48.48,0,0,0,98,18,1.62,1.62,0,0,0,97.94,17.81Z"/><path class="cls-7" d="M97.58,21.47l0,.08a.1.1,0,0,0,.1.1l.05,0a1.2,1.2,0,0,0,.62-.92v0l-.09,0h0l0,0A2,2,0,0,1,97.58,21.47Z"/><path class="cls-7" d="M97.52,20.74a.13.13,0,0,0-.08.12.16.16,0,0,0,.16.15l.1,0a.39.39,0,0,0,.14-.29v-.09l-.09,0h0l0,0A.65.65,0,0,1,97.52,20.74Z"/><path class="cls-5" d="M95.73,13.8a14.39,14.39,0,0,0-5.91-1.09,13.69,13.69,0,0,0-2.36.28,9.09,9.09,0,0,0-3.55,1.49,4.24,4.24,0,0,0-1.83,3.26c0,.16,0,.32,0,.48a5.21,5.21,0,0,0,1.26,3.45c.1.1.2.19.31.27a1,1,0,0,0-.17.57,1,1,0,0,0,.18.52h0a1.38,1.38,0,0,0-.19.72,1.24,1.24,0,0,0,.17.58h0c-.75,3.08-1.46,6.16-2.3,9.22Q80.7,35.82,80,38c-.22.72-.44,1.43-.67,2.14a4.84,4.84,0,0,0-.41,1.52,1.22,1.22,0,0,0,0,.21,3.37,3.37,0,0,0,.77,1.21q.73,1,1.48,1.9a2.72,2.72,0,0,0,.89.88,8.07,8.07,0,0,0,2.16.38q4.38.62,8.81.86,1.27.07,2.54.11c.23,0,.46,0,.68,0a1.8,1.8,0,0,0,.86-.21,11.63,11.63,0,0,0,1.75-1.49L101,43.77a.25.25,0,0,0,.08-.19v-.07c-2-5.74-3.13-11.72-4.34-17.69h0a1.6,1.6,0,0,0,.63-1.25v0a1.51,1.51,0,0,0,.59-1.13.94.94,0,0,0-.2-.55,4.88,4.88,0,0,0,2.1-3.1,5.79,5.79,0,0,0,.09-1.18A4.39,4.39,0,0,0,99.08,16,8,8,0,0,0,95.73,13.8ZM83.86,22.33a.82.82,0,0,1,0-.2l.14.1,0,.08h0a.69.69,0,0,0,0,.26l0,.11A.82.82,0,0,1,83.86,22.33Zm.47.8a2.43,2.43,0,0,1-.06-.41.56.56,0,0,1,.06-.28l.15.08a.68.68,0,0,0-.14.42.61.61,0,0,0,.07.25Zm-.44.56a1,1,0,0,1,.05-.32l.14.12a.79.79,0,0,0-.14.2l0,.09ZM98.48,37q.42,1.7.92,3.38c-.05-.14-.11-.28-.17-.41a.12.12,0,0,0-.11-.07A.13.13,0,0,0,99,40h0a15,15,0,0,0,.5,2.22l-.09,0a.2.2,0,0,0-.18.14l.06,0-.06,0v.1a.2.2,0,0,0,.22.18.18.18,0,0,0,.17-.11h.16v0c0-.11,0-.22,0-.33A5.64,5.64,0,0,0,99.6,41c.12.39.25.78.39,1.17.05.15.16.36.26.57a1.71,1.71,0,0,1,.18.56v0a1,1,0,0,1-.37.59c-.2.19-.44.35-.61.5-.73.65-1.44,1.32-2.2,1.94a2.25,2.25,0,0,1-1.41.44c-.53,0-1.09-.06-1.6-.08q-1.44-.06-2.87-.16-3-.21-6-.59a18.49,18.49,0,0,1-2.79-.4c-.94-.27-1.76-1.77-2.36-2.56a2.73,2.73,0,0,1-.71-1.25,1.63,1.63,0,0,1,0-.23,3.76,3.76,0,0,1,.29-1.25q.47-1.48.91-3C81.94,33.19,83.1,29,84,24.77a3.06,3.06,0,0,0,.28.25,1.11,1.11,0,0,0-.05.36s0,.09,0,.13v0h.13l0,.13a2.77,2.77,0,0,0-.15.82v.16l.07,0h0l0,0a3.42,3.42,0,0,0,.31-.83c0-.15.12-.31.18-.47l.15.08-.09.26-.15.42c-.11.33-.22.66-.31,1v0a.1.1,0,0,0,.11.09l.08-.06a17.08,17.08,0,0,0,.66-1.59l.11.05c-.06.24-.12.49-.2.73a5.88,5.88,0,0,0-.3,1.07v0l.11.06,0,0,0,0a4.24,4.24,0,0,0,.67-1.72l0,0a4.94,4.94,0,0,0-.19.82,5.29,5.29,0,0,0-.23,1.27V28l.07,0h0l0,0a4.85,4.85,0,0,0,.44-1.28,6,6,0,0,0,.22-.76l.11,0c-.11.33-.17.68-.25,1a6.24,6.24,0,0,0-.28,1.46v0l.1,0h0l0,0a6.27,6.27,0,0,0,.45-1.42c.08-.31.19-.64.25-1l.13,0c-.11.33-.15.71-.22,1-.13.56-.27,1.12-.37,1.68v0a.15.15,0,0,0,.16.15.16.16,0,0,0,.15-.11,26.67,26.67,0,0,0,.74-2.61,14.91,14.91,0,0,0,2.92.55c.68.06,1.4.1,2.12.09v0h0a73,73,0,0,0,1.44,7.58.18.18,0,0,0,.18.13h0a4.86,4.86,0,0,0,.51-.13l-.35.16a.13.13,0,0,0-.08.13.15.15,0,0,0,.15.15h0c.27-.1.57-.15.85-.26l.15-.06-.07,0,0,0v-.06L95,34.5a.16.16,0,0,0-.12-.06h0a1.55,1.55,0,0,0-.33.08,1.07,1.07,0,0,0,.49-.4,1.31,1.31,0,0,0,.16-.73A10.91,10.91,0,0,0,95,32.08c-.26-1.75-.52-3.5-.82-5.24h.07c0,.31.06.61.12.92a2.51,2.51,0,0,0,.3,1l0,0,.11,0h0v0a1.23,1.23,0,0,0,0-.24,4.5,4.5,0,0,0-.11-.69c-.06-.34-.14-.68-.21-1l.13,0a2.62,2.62,0,0,0,.16.73.11.11,0,0,0,.21,0s0-.1,0-.15a3.14,3.14,0,0,0-.1-.61l.07,0c0,.05,0,.1,0,.16A11.87,11.87,0,0,0,95.64,30l0,.06.1,0,0,0v-.05c-.19-1.1-.3-2.25-.57-3.34l.15,0c0,.31.08.62.12.91a5.26,5.26,0,0,0,.24,1.26v0h.13v0a2.39,2.39,0,0,0,.06-.64c0-.08,0-.16,0-.24h0v.05l.12,0h0v0a5,5,0,0,0,0-.55c0-.33,0-.65-.08-1h0l.16-.09C96.93,29.77,97.61,33.39,98.48,37Zm-14-11.8h0a2.41,2.41,0,0,0-.12.36v0A1.19,1.19,0,0,1,84.46,25.17Zm11.31,1.22q0,.21,0,.41a2.74,2.74,0,0,0-.09-.38Zm-2,.51c.2,1.14.41,2.27.61,3.4q.17,1,.33,2a7.62,7.62,0,0,1,.17.88v.1a2,2,0,0,1-.23.63c-.12.22-.29.39-.45.39a.29.29,0,0,1-.15,0,1,1,0,0,1-.31-.66c-.06-.31-.08-.65-.13-.86-.12-.6-.23-1.2-.34-1.8Q92.92,29,92.65,27h0C93,27,93.4,26.94,93.77,26.9Zm3.79-3.53a.66.66,0,0,1-.07.3v-.08a.85.85,0,0,0-.16-.49h0l.11-.06A.63.63,0,0,1,97.55,23.36Zm1.26-6.17a4.57,4.57,0,0,1-1.88,5.49,2.88,2.88,0,0,0,.49-.44l0,0-.06-.08,0,0,0,0a6.07,6.07,0,0,1-1.11.6c-.36.14-.76.16-1.14.29h0v.16h0a1.48,1.48,0,0,0,.42,0,2.28,2.28,0,0,0,.77-.18,5.21,5.21,0,0,1-1.35.42.1.1,0,0,0-.09.1.1.1,0,0,0,.1.1h.54a.54.54,0,0,1,.25.17.55.55,0,0,1,.09.35.14.14,0,0,0,0,.11l.1,0a.15.15,0,0,0,.14-.11.46.46,0,0,0,0-.16.69.69,0,0,0-.21-.45h0a.54.54,0,0,1,.19.22c0,.09,0,.24.1.37l0,0h.15a.26.26,0,0,0,.11-.24.75.75,0,0,0-.1-.32.73.73,0,0,0-.11-.14h.05a.63.63,0,0,1,.14.17c0,.07,0,.17.1.28l.11.06a.13.13,0,0,0,.11-.06.26.26,0,0,0,0-.15.64.64,0,0,0-.11-.3.56.56,0,0,0-.1-.1l.13-.05v0l.1.21a.18.18,0,0,0,.15.12h0l0,0h0l0-.09a.27.27,0,0,0,0-.11l-.1-.2h0l.11,0h0v0a.47.47,0,0,1,.09.26,1,1,0,0,1-.23.57l0,0,0,.08,0,0h0a3.46,3.46,0,0,1-.63.39,4.17,4.17,0,0,1-1.65.39h-.24v.16h.05a4.12,4.12,0,0,0,.74.06v0h0a.59.59,0,0,1,.06.24.15.15,0,0,0,.3,0v0a.63.63,0,0,0-.08-.27h.08l.06.14a.15.15,0,0,0,.14.09l.09,0,0-.1v0l0-.11H96l0,.09a.46.46,0,0,1,0,.18v0l.05.06,0,0h0a.26.26,0,0,0,.17-.27.43.43,0,0,0,0-.17l.17-.06,0,.05h0v.1a.21.21,0,0,0,.06.16l0,0h.08l0,0a.22.22,0,0,0,.05-.17v-.09h0l0-.08h0a3.1,3.1,0,0,0,.46-.22,1.1,1.1,0,0,1-.38.67c-.71.63-2.31.84-3.7.88-.94,0-1.78,0-2.19,0a20.38,20.38,0,0,1-4.91-1,.17.17,0,0,0-.17-.1h-.05a4.27,4.27,0,0,1-1.21-.7.14.14,0,0,0,.05-.11l0-.08a.53.53,0,0,1-.1-.29.33.33,0,0,1,0-.19.42.42,0,0,1,.11-.1l.06,0a.57.57,0,0,0-.07.14.87.87,0,0,0,0,.26.59.59,0,0,0,0,.22.19.19,0,0,0,.18.12h0l0,0h0v-.06a1,1,0,0,0,0-.15v0a.35.35,0,0,1,0-.14.51.51,0,0,0,0,.14.53.53,0,0,0,.08.26.14.14,0,0,0,.12.07.14.14,0,0,0,.15-.14v0l0-.09a.17.17,0,0,1,.06-.14l0,0,.14.06a.52.52,0,0,0-.06.24v0a.15.15,0,0,0,.16.14.15.15,0,0,0,.15-.15.21.21,0,0,1,.06-.14,7.12,7.12,0,0,0,2.1.47h0l0-.12v0l0,0a15.84,15.84,0,0,1-3.12-1.24.1.1,0,0,0,.08-.09v0a.4.4,0,0,1,0-.13.51.51,0,0,1,.16-.38h0a.52.52,0,0,0-.1.33.85.85,0,0,0,.08.31.13.13,0,0,0,.13.08l.08,0,0-.09v-.13a.36.36,0,0,1,.09-.28l.07,0h0a.43.43,0,0,0-.1.27.46.46,0,0,0,.06.21.13.13,0,0,0,.12.07.14.14,0,0,0,.14-.14v-.09a.11.11,0,0,1,.07-.11s.1,0,.17-.05l.05,0a.81.81,0,0,0-.11.21v0a.12.12,0,0,0,.13.11l.1-.06a.5.5,0,0,1,.14-.17h0l.06-.05a6.14,6.14,0,0,0,1.61.19h.05v-.12h-.05a6.54,6.54,0,0,1-4.07-2.26,4.93,4.93,0,0,1-.57-1.38A4.2,4.2,0,0,0,84,21l0,0,.06,0a1.55,1.55,0,0,0,1.13.66,1,1,0,0,0,.33-.07h0v-.09h0v0a.38.38,0,0,0,0-.18v-.2a.72.72,0,0,1,.19-.32l0,0-.06-.1,0,0h0a.48.48,0,0,0-.31.19v-.11a.45.45,0,0,0-.26-.16,1.19,1.19,0,0,1-.25-.09,1.29,1.29,0,0,1-.49-.49h0l-.1-.06,0,0a.14.14,0,0,0,.07-.12l0-.1L84,19.33l-.09,0a.14.14,0,0,0-.13.14l0,.07.26.37a.15.15,0,0,0,.13.07l0,0,0,.08v0a1.23,1.23,0,0,0,.47.66,1,1,0,0,0,.53.22.29.29,0,0,0,.16-.05.64.64,0,0,0-.05.12.72.72,0,0,0,0,.24l0,.13a4,4,0,0,1-1-.82,2.94,2.94,0,0,1-.72-1.39.14.14,0,0,0-.14-.1l-.1,0a.13.13,0,0,0,0,.1h0c0,.12,0,.23.06.35a3.33,3.33,0,0,1-.41-1.4,2.45,2.45,0,0,1,.3-1.23l0-.05-.09-.05,0,0,0,0a2.69,2.69,0,0,0-.24.55,3.34,3.34,0,0,1,.3-.95c1.13-2.23,4.11-2.95,6.61-3,.46,0,.9,0,1.31,0a12.73,12.73,0,0,1,4.35,1C96.69,15,98.32,15.81,98.82,17.2Z"/><path class="cls-5" d="M97.23,37.55l0,0c.32,1,.64,2,.94,3a10.71,10.71,0,0,1,.39,1.33,2.29,2.29,0,0,1,0,.3,1.23,1.23,0,0,1-.36,1,3.87,3.87,0,0,1-.91.6A7.88,7.88,0,0,1,94.17,45h-.23a30.52,30.52,0,0,1-3.12-.19q-3.41-.25-6.81-.67a2.61,2.61,0,0,1-1.7-.62,11.92,11.92,0,0,1-1-1.36,2.21,2.21,0,0,1-.59-1.2,1.3,1.3,0,0,1,.05-.39c.12-.45.44-.89.62-1.36v0a.12.12,0,0,0-.13-.11l-.11.06a6.08,6.08,0,0,0-.86,1.7.91.91,0,0,0,0,.21,1.57,1.57,0,0,0,.4.83c.54.78,1.11,2,2.06,2.45a6.19,6.19,0,0,0,1.73.29l2.22.25q2.16.22,4.32.37a28.59,28.59,0,0,0,2.85.19,5.22,5.22,0,0,0,1.31-.19,10.89,10.89,0,0,0,3.28-1.66,1.31,1.31,0,0,0,.6-1.16,4.62,4.62,0,0,0-.2-1,21.16,21.16,0,0,0-1.43-3.8l0-.05-.1,0Z"/><path class="cls-5" d="M97,35.73h0A3.45,3.45,0,0,0,97.31,37a.12.12,0,0,0,.11.07.14.14,0,0,0,.13-.14v0h0c-.07-.4-.15-.79-.19-1.19a.19.19,0,0,0-.2-.17.19.19,0,0,0-.12,0A.17.17,0,0,0,97,35.73Z"/><path class="cls-5" d="M96.74,34.17v0a.75.75,0,0,0,.08.23,1.53,1.53,0,0,1,.07.23.15.15,0,0,0,.16.12l.11,0a.14.14,0,0,0,.05-.11v0h0a1.84,1.84,0,0,0-.07-.3A.46.46,0,0,0,97,34l-.08,0A.16.16,0,0,0,96.74,34.17Z"/><path class="cls-7" d="M95.07,36l0-.11a.17.17,0,0,0-.08-.14.38.38,0,0,0-.21-.05h0a.19.19,0,0,0-.14.07.21.21,0,0,0,0,.14.23.23,0,0,0,.05.14.2.2,0,0,0,.16.07h.05A.37.37,0,0,0,95.07,36Z"/><path class="cls-7" d="M84.88,37l.07-.25a.53.53,0,0,0,.13-.28v0a.18.18,0,0,0-.18-.17.17.17,0,0,0-.16.13.69.69,0,0,0,0,.21l0,.1,0,.25h0v0a.1.1,0,0,0,.11.1A.1.1,0,0,0,84.88,37Z"/><path class="cls-7" d="M85.92,33.86l0-.09v0a.19.19,0,0,0-.18-.1.21.21,0,0,0-.17.08.2.2,0,0,0,0,.13.22.22,0,0,0,.15.2h.09A.2.2,0,0,0,85.92,33.86Z"/><path class="cls-5" d="M81.87,44.87l0,0a20.6,20.6,0,0,0-1.88-3l0,0,0,0,0,0,0,0,0,0a20.58,20.58,0,0,0,1.89,3l0,0,.06,0Z"/><path class="cls-5" d="M82.25,45l0-.07v0a.19.19,0,0,0-.09-.13l-.09-.06a.4.4,0,0,1-.08-.12,2.5,2.5,0,0,0,.45.11h.05l0-.09v0l0,0a2.62,2.62,0,0,0-.46-.11H82l0,.06a.12.12,0,0,0-.11-.08l-.08,0,0,.09v0h0a.68.68,0,0,0,.33.48h.17Z"/><path class="cls-5" d="M96.86,45.93a1.52,1.52,0,0,1-1,.45,5.79,5.79,0,0,0,.85-.35.17.17,0,0,0,.1-.16.21.21,0,0,0-.21-.2l-.09,0a5,5,0,0,0-.87.52l0,.1,0,.07-.23,0h0a.12.12,0,0,0-.12.13.12.12,0,0,0,.09.11,1.85,1.85,0,0,0,.54.06,1.79,1.79,0,0,0,.66-.15,2.09,2.09,0,0,0,.43-.25.64.64,0,0,0,.28-.43v0l-.07-.05,0,0h0A.67.67,0,0,0,96.86,45.93Z"/><path class="cls-5" d="M95.75,45.61h.12l.06,0-.27.22,0,0,.07.11,0,0,0,0a4,4,0,0,0,.66-.32.16.16,0,0,0,.08-.14.17.17,0,0,0-.17-.17l-.08,0h0l0-.08v-.06a.18.18,0,0,0-.2-.17h0L96,45l0,0h0l-.14,0a.13.13,0,0,0-.11.13.18.18,0,0,0,0,.11h0l-.06,0a.16.16,0,0,0-.08.14A.17.17,0,0,0,95.75,45.61Z"/><path class="cls-5" d="M98.72,44.25q-.66.57-1.29,1.18l0,.1a.15.15,0,0,0,.15.14l.09,0q.61-.55,1.24-1.08c.34-.29.89-.56,1.11-1l0,0-.08-.09,0,0h0C99.41,43.51,99,44,98.72,44.25Z"/><path class="cls-7" d="M99.53,42.91l-.07.09h0l0,.09h0a.2.2,0,0,1-.08.12.16.16,0,0,0,.09.3l.08,0a.54.54,0,0,0,.22-.26.31.31,0,0,0,0-.12.3.3,0,0,0-.1-.19l0,0h-.11Z"/><path class="cls-5" d="M92.85,46.34a.12.12,0,0,0-.09-.11v0a16.84,16.84,0,0,0-3.45-.35,20.81,20.81,0,0,1-4.05-.18H85.2l0,.1v.05l.05,0a12.46,12.46,0,0,0,3.61.28c1.31,0,2.6.25,3.91.32h0l.08,0Z"/><path class="cls-7" d="M94.41,46.36a.24.24,0,0,0-.07-.16l0,0a.22.22,0,0,0-.16-.06.24.24,0,0,0-.23.24v.09a.24.24,0,0,0,.24.17l.12,0A.24.24,0,0,0,94.41,46.36Z"/><path class="cls-5" d="M94.25,35.24l0,.09,0,0a1.33,1.33,0,0,0-1-.58h-.07a1.35,1.35,0,0,0-.45.11c-.24.09-.38.29-.59.33l-.16,0a2.33,2.33,0,0,1-1.16-.39,3.69,3.69,0,0,0-1.93-.6,2.09,2.09,0,0,0-1.46.66,5.4,5.4,0,0,0-.48.73.81.81,0,0,1-.61.45h-.08c-.42,0-.76-.52-1.19-.71a1.61,1.61,0,0,0-.68-.13,1.58,1.58,0,0,0-1.48,1.09,5.84,5.84,0,0,1-.77,1.94,6.8,6.8,0,0,0-1.32,2.58v0a.17.17,0,0,0,.18.15h0a5.26,5.26,0,0,0,1.4,2,2.1,2.1,0,0,0,1.64.45h.18a19.72,19.72,0,0,1,3.44.24,40,40,0,0,0,5.94.46h.9A4.72,4.72,0,0,0,98,43.07a1.12,1.12,0,0,0,.31-.82,1.92,1.92,0,0,0-.07-.42,5.89,5.89,0,0,0-.43-1,6.27,6.27,0,0,1-.48-1.89,1.65,1.65,0,0,0-.67-1.25,2.14,2.14,0,0,0-.72-.23,1.28,1.28,0,0,1-.65-.3,4.17,4.17,0,0,1-.66-1.21,3.8,3.8,0,0,0-.31-.5l.07,0,.07,0a1.19,1.19,0,0,1,.46-.19A.15.15,0,0,0,95,35.1a.18.18,0,0,0-.18-.18h0A1.07,1.07,0,0,0,94.25,35.24Zm-.35.4a2.4,2.4,0,0,1,.41.69,3.23,3.23,0,0,0,.74,1.19,2.38,2.38,0,0,0,.9.4,1.24,1.24,0,0,1,.75.48c.37.56.23,1.41.51,2.1.09.22.21.42.31.63a2.71,2.71,0,0,1,.36,1.12,1.15,1.15,0,0,1-.16.63,1.89,1.89,0,0,1-1,.68,7.29,7.29,0,0,1-1.28.28,12.47,12.47,0,0,1-1.31.1A30.28,30.28,0,0,1,91,43.82c-1.68-.12-3.34-.45-5-.61A12.24,12.24,0,0,1,83.24,43a12.22,12.22,0,0,0,.67-1.91,7,7,0,0,0,.62-2.24v-.09l-.11,0h0l0,0a6.22,6.22,0,0,0-.82,2.08,13.68,13.68,0,0,0-.63,2,4,4,0,0,1-1-1.05,3.09,3.09,0,0,1-.72-1.14,6,6,0,0,1,1.09-2.05,3.33,3.33,0,0,0,.8-1.48,1.93,1.93,0,0,1,.67-1.35,1.07,1.07,0,0,1,.56-.18,1.8,1.8,0,0,1,1,.33,2,2,0,0,0,1.09.49h0a.88.88,0,0,0,.69-.38c.26-.33.34-.71.63-1A2,2,0,0,1,89,34.58h0a2.72,2.72,0,0,1,1.41.51,2.79,2.79,0,0,0,1.43.53,1.34,1.34,0,0,0,.36-.06,2.32,2.32,0,0,0,.36-.15.5.5,0,0,1,.23-.05h.36A1,1,0,0,1,93.91,35.64Z"/><path class="cls-7" d="M97,42.78a1.43,1.43,0,0,1-.65.34v0a.14.14,0,0,0-.11.14.16.16,0,0,0,.16.15h0a2,2,0,0,0,.74-.32.84.84,0,0,0,.42-.68v-.05l-.08,0,0,0,0,0A4.35,4.35,0,0,0,97,42.78Z"/><path class="cls-7" d="M96.43,42.36a.13.13,0,0,0-.1.13.14.14,0,0,0,.15.14h0a.86.86,0,0,0,.77-.81v-.07l-.1,0h0l0,0A1.48,1.48,0,0,1,96.43,42.36Z"/><path class="cls-7" d="M96.6,41.36a.29.29,0,0,1-.2.09h0l-.1,0,0,.1a.15.15,0,0,0,.14.15h.05a.5.5,0,0,0,.52-.46l0-.11v0h-.14l0,0A1.06,1.06,0,0,1,96.6,41.36Z"/><path class="cls-7" d="M96.12,40.45a.17.17,0,0,0,.09.15h0l.08,0a.17.17,0,0,0,.17-.17v0h0l0-.09h0a.19.19,0,0,0-.12,0l-.12.05A.17.17,0,0,0,96.12,40.45Z"/><path class="cls-7" d="M93.39,36l0,.09,0,0,0,0a3.61,3.61,0,0,1,.41.49,1.27,1.27,0,0,0,.35.4l0,0,.09-.05,0,0v0h0a.89.89,0,0,0-.27-.54,3.91,3.91,0,0,0-.45-.46l-.1,0A.14.14,0,0,0,93.39,36Z"/><path class="cls-7" d="M93.43,36.65l-.1,0a.15.15,0,0,0-.14.15l0,.09a1.14,1.14,0,0,0,.31.32h.07a.14.14,0,0,0,.14-.14v0A1.17,1.17,0,0,0,93.43,36.65Z"/><path class="cls-7" d="M86.37,36.82a.11.11,0,0,0,.12.11h0a1.81,1.81,0,0,0,.81-.38,1,1,0,0,0,.41-.79v0l-.09,0h0l0,0a4.3,4.3,0,0,1-.43.62,1.4,1.4,0,0,1-.69.38A.1.1,0,0,0,86.37,36.82Z"/><path class="cls-7" d="M88.08,36.07v0h-.12l0,0c-.14.14-.19.32-.29.44a1.19,1.19,0,0,1-.48.33.11.11,0,0,0-.07.1.11.11,0,0,0,.11.11h0a.88.88,0,0,0,.65-.3.72.72,0,0,0,.23-.48A.44.44,0,0,0,88.08,36.07Z"/><path class="cls-7" d="M89.08,35.24a1.79,1.79,0,0,1,.37,0h0l0-.09,0,0,0,0a.77.77,0,0,0-.43-.11,1.12,1.12,0,0,0-.76.36l0,0,.09.08,0,0,0,0A.9.9,0,0,1,89.08,35.24Z"/><path class="cls-7" d="M89.77,35.63a.51.51,0,0,0-.42-.19.74.74,0,0,0-.54.28l0,.09a.14.14,0,0,0,.14.13l.09,0a.51.51,0,0,1,.39-.17,1,1,0,0,1,.29,0h0l0-.08,0,0Z"/><path class="cls-7" d="M89.26,36.39a.13.13,0,0,0,.13.13h.05a1.77,1.77,0,0,1,.39-.09h0v-.12l0,0a.42.42,0,0,0-.22-.05.79.79,0,0,0-.3.08A.11.11,0,0,0,89.26,36.39Z"/><path class="cls-7" d="M84,42.47a5,5,0,0,1,.19-.78l0-.05-.1,0-.05,0,0,.05a5.18,5.18,0,0,0-.28.79,1.67,1.67,0,0,0-.09.45.49.49,0,0,0,.05.21v0h.1l0,0A1.25,1.25,0,0,0,84,42.47Z"/><path class="cls-7" d="M84.37,43V42.9h0v-.06a2.73,2.73,0,0,1,.21-.77v0a.11.11,0,0,0-.11-.11l-.07,0a1.55,1.55,0,0,0-.35.88h0a.35.35,0,0,0,.07.18.21.21,0,0,0,.17.1A.16.16,0,0,0,84.37,43Z"/><path class="cls-7" d="M84.86,43.06h0a.2.2,0,0,0,.09-.18V42.8h0v-.07a.92.92,0,0,1,.06-.37V42.3a.15.15,0,0,0-.16-.13.13.13,0,0,0-.12.08,1.2,1.2,0,0,0-.12.54.87.87,0,0,0,0,.18.17.17,0,0,0,.17.12l.08,0h0Z"/><path class="cls-7" d="M85.37,43v-.12l0,0a.52.52,0,0,1-.16-.26l0-.1,0,0-.07-.09,0,0,0,0a.38.38,0,0,0-.15.32v.07a.39.39,0,0,0,.09.18.24.24,0,0,0,.19.09h.1Z"/><path class="cls-7" d="M85.88,42.58a.12.12,0,0,0-.13-.12l-.1.06a.3.3,0,0,0,0,.14.34.34,0,0,0,.06.18.2.2,0,0,0,.17.09l.08,0h0l0-.08v0l0,0s-.09-.1-.09-.12v0l-.05,0,.05,0Z"/><path class="cls-7" d="M82.37,41.34a.13.13,0,0,0-.12.14l0,.09.1,0h0a1.35,1.35,0,0,0,.33-.05.37.37,0,0,0,.26-.23v0l0-.06v0h-.09a.55.55,0,0,0-.21.07A1,1,0,0,1,82.37,41.34Z"/><path class="cls-7" d="M82.59,40.75a.54.54,0,0,1-.24.08.11.11,0,0,0,0,.21h0a.85.85,0,0,0,.32-.07.34.34,0,0,0,.22-.26v0l0,0,0,0,0,0h0A.86.86,0,0,0,82.59,40.75Z"/><path class="cls-7" d="M82.46,40.17l0,.09a.11.11,0,0,0,.11.11l.06,0h0a1.7,1.7,0,0,0,.29-.24l0,0,0-.08,0,0,0,0A1.7,1.7,0,0,0,82.46,40.17Z"/><path class="cls-7" d="M82.56,38.71v0a.16.16,0,0,0,.16.16h0l.08,0h0l0-.1v0l-.08-.09-.11,0A.16.16,0,0,0,82.56,38.71Z"/><path class="cls-7" d="M84,36.45l0,0,0-.1v0h0a.28.28,0,0,0-.13,0h0l-.18,0a.12.12,0,0,0-.1.13.15.15,0,0,0,.15.15h0A.51.51,0,0,0,84,36.45Z"/><path class="cls-7" d="M87.42,32.75v.06a.2.2,0,0,0,.16-.21.27.27,0,0,0-.06-.16.2.2,0,0,0-.14-.07h-.07a.22.22,0,0,0-.18.11h0l0,.12,0,.11a.26.26,0,0,0,.22.12h.06Z"/><path class="cls-7" d="M89.86,30h0a.22.22,0,0,0,.15-.21l0-.1a.22.22,0,0,0-.19-.1.21.21,0,0,0-.15.07.45.45,0,0,0-.1.18v0a.13.13,0,0,0,.1.12h.12l.11,0Z"/><path class="cls-7" d="M89.76,32.58a.2.2,0,0,0-.16-.19h-.06a.21.21,0,0,0-.2.23.2.2,0,0,0,.16.19h.06A.21.21,0,0,0,89.76,32.58Z"/><path class="cls-7" d="M86.13,30.86a.22.22,0,0,0,.1-.2.19.19,0,0,0-.07-.14h0L86,30.45H86a.19.19,0,0,0-.18.15h0v.12h0a.21.21,0,0,0,.21.15l.1,0Z"/><path class="cls-7" d="M84.8,29.61l0-.1a.21.21,0,0,0-.07-.15h0a.18.18,0,0,0-.13-.05.2.2,0,0,0-.16.09l0,.11a.24.24,0,0,0,.06.15h0a.17.17,0,0,0,.14.06A.21.21,0,0,0,84.8,29.61Z"/><path class="cls-7" d="M95.67,43.33h0l0-.08v0l-.12,0h0a3.1,3.1,0,0,1-1.06.24h-.09l-.09,0,0,.08a.13.13,0,0,0,.12.13h.3a2.52,2.52,0,0,0,.95-.21A.16.16,0,0,0,95.67,43.33Z"/><path class="cls-7" d="M94.94,43.26h0a2.1,2.1,0,0,0,.7-.21,1,1,0,0,0,.54-.42l0,0,0-.06,0,0h0a1.52,1.52,0,0,0-.58.22c-.21.1-.43.18-.65.29a.12.12,0,0,0-.06.11.13.13,0,0,0,.13.13h0Z"/><path class="cls-7" d="M95.59,42.5a2.19,2.19,0,0,0,.48-.25.3.3,0,0,0,.13-.22l0-.09a.17.17,0,0,0-.15-.09l-.08,0,0,0v0h0l-.16.12-.27.14-.57.26a.12.12,0,0,0-.08.12.12.12,0,0,0,.12.12h0A3.37,3.37,0,0,0,95.59,42.5Z"/><path class="cls-7" d="M95.65,41.7a.57.57,0,0,0,.13-.22l0,0-.07-.07,0,0,0,0a1.58,1.58,0,0,0-.17.09l-.18.15a1.73,1.73,0,0,1-.38.21.13.13,0,0,0-.08.13l0,.08.09,0h0a2,2,0,0,0,.45-.22Z"/><path class="cls-7" d="M94.8,41.2l0,.11a.16.16,0,0,0,.16.15l.1,0h0a1.62,1.62,0,0,0,.25-.3l0,0-.1-.09,0,0,0,0A1.65,1.65,0,0,0,94.8,41.2Z"/><path class="cls-7" d="M85.28,18h0V18h0l0-.08h0a1.07,1.07,0,0,0-1.08-1h-.09a1.16,1.16,0,0,0-1,1.16v.07a1.15,1.15,0,0,0,1.14,1h0A1,1,0,0,0,85,18.8,1.14,1.14,0,0,0,85.28,18Zm-1.77.1v0a.81.81,0,0,1,.58-.77l.16,0a.94.94,0,0,1,.84.62l0,0V18a.94.94,0,0,1-.74.79H84.3A.79.79,0,0,1,83.5,18.12Z"/><path class="cls-7" d="M85.62,18.26a.8.8,0,0,0-.11-.38l0,0h-.13v0c-.09.63-.24,1.1-.85,1.35a.12.12,0,0,0-.07.11l0,.07.08,0h0A1.32,1.32,0,0,0,85.62,18.26Z"/><path class="cls-7" d="M85.81,19.12a.69.69,0,0,0,.12-.38.6.6,0,0,0,0-.2l0,0h-.14v0a2.88,2.88,0,0,1-.17.44,1.5,1.5,0,0,1-.3.34l0,0,.06.1,0,0h0A.73.73,0,0,0,85.81,19.12Z"/><path class="cls-7" d="M85.66,19.8a.12.12,0,0,0,.12.11l.09-.06,0-.06,0,0h0a.52.52,0,0,0,.26.12h.07l0-.09v0a.24.24,0,0,0-.11-.14l-.13-.07-.07,0a.26.26,0,0,0,0-.11h0v0l-.09,0,0,0,0,0a.37.37,0,0,0-.11.18l-.09.21Z"/><path class="cls-7" d="M83.36,17.35a2.47,2.47,0,0,1,.3-1,8.49,8.49,0,0,1,.64-.82l0,0,0-.07,0,0,0,0a2.2,2.2,0,0,0-1,1.9h0l0,.07.07,0A.09.09,0,0,0,83.36,17.35Z"/><path class="cls-7" d="M84.36,15.86h0a.61.61,0,0,0-.49.38,1.46,1.46,0,0,0-.14.6h0l0,.09.08,0a.12.12,0,0,0,.11-.1,1.37,1.37,0,0,1,.19-.48,2.73,2.73,0,0,0,.29-.4v0l0-.07Z"/><path class="cls-7" d="M84.37,16.79a.14.14,0,0,0,.07-.12.15.15,0,0,0-.15-.15l-.07,0-.07,0a.14.14,0,0,0-.07.12.15.15,0,0,0,.15.15l.07,0h0Z"/><path class="cls-7" d="M86.07,20.28h0v-.11h0a.34.34,0,0,0-.22-.06.84.84,0,0,1-.19,0,.54.54,0,0,1-.37-.32.13.13,0,0,0-.13-.08l-.08,0,0,.09v0a.8.8,0,0,0,.06.15.51.51,0,0,1-.15-.13l-.11-.06a.13.13,0,0,0-.13.13l0,.06a.66.66,0,0,0,.52.39l.11,0h0v-.06l.07,0a.89.89,0,0,0,.36.08A.25.25,0,0,0,86.07,20.28Z"/><path class="cls-7" d="M85.79,21.15a.9.9,0,0,0-.06.3.34.34,0,0,0,0,.13.22.22,0,0,0,.21.13.2.2,0,0,0,.21-.19l0-.1,0,0h0a1.91,1.91,0,0,0,.07-.26,2.86,2.86,0,0,1,.11-.37v0l0-.09-.09,0-.11.06A2.2,2.2,0,0,0,85.79,21.15Z"/><path class="cls-7" d="M86.24,21.36v0a.45.45,0,0,0,.07.25.29.29,0,0,0,.22.12h.07l0-.07v0a.35.35,0,0,0-.06-.16.35.35,0,0,1-.06-.11v0a.2.2,0,0,1,.1-.19l0-.05,0,.05a.12.12,0,0,0,.06-.11.13.13,0,0,0-.13-.13h0A.49.49,0,0,0,86.24,21.36Z"/><path class="cls-7" d="M87.23,21.66l0-.07a.57.57,0,0,0-.07-.1l0-.08h0a.15.15,0,0,1,.07-.14.14.14,0,0,0,.07-.12.15.15,0,0,0-.15-.15L87,21a.46.46,0,0,0-.22.4h0a.55.55,0,0,0,.06.23.26.26,0,0,0,.2.16h0l.11,0Z"/><path class="cls-7" d="M87.66,21.21a.14.14,0,0,0-.14-.12.12.12,0,0,0-.11.07.54.54,0,0,0,0,.22.48.48,0,0,0,0,.14.46.46,0,0,0,.08.16.23.23,0,0,0,.18.09h0l0,0,0-.07,0,0v0c0-.09-.09-.14-.1-.18l0-.07,0-.1Z"/><path class="cls-7" d="M88.23,21.33a.13.13,0,0,0-.12.1v.06a.32.32,0,0,0,.06.17.2.2,0,0,0,.16.09l.08,0h0v-.13l0,0-.05,0h0v0A.14.14,0,0,0,88.23,21.33Z"/><path class="cls-7" d="M88.63,21.59a.12.12,0,0,0,.09.11h0a.12.12,0,0,0,.12-.13.12.12,0,0,0-.09-.11h0A.12.12,0,0,0,88.63,21.59Z"/><path class="cls-6" d="M84.86,18.27a9.39,9.39,0,0,0,8.31,3.35c1.54-.19,3.27-1.1,3.34-2.65A2.75,2.75,0,0,0,95,16.61a8.09,8.09,0,0,0-2.81-.8,9.46,9.46,0,0,0-4.52,0c-1.44.49-2.67,2-2.34,3.45"/><path class="cls-8" d="M82.93,34.85c-.67,2.44-.23,5.37,1.74,7,1.72,1.39,4.13,1.46,6.34,1.4,1.9-.05,4.24-.48,4.78-2.3a3.78,3.78,0,0,0-1-3.31,19.33,19.33,0,0,1-2.27-2.78,14,14,0,0,1-1-4.39c-.25-1.49-.86-3.08-2.21-3.75C86.42,25.28,83.5,32.79,82.93,34.85Z"/><path class="cls-6" d="M163.48,105.63a2.91,2.91,0,0,0,2-1.34c.52-1.21-.87-2.53-2.19-2.53a8,8,0,0,0-3.65,1.42,17.53,17.53,0,0,1-13.06,1.36c-3.45-1-7.52-2.72-9.57,1.78C145.17,109,155.43,107.92,163.48,105.63Z"/><path class="cls-9" d="M145.4,101.24a5.45,5.45,0,0,0,3.61.54l7.85-.64a3.18,3.18,0,0,0,1.76-.5,2.14,2.14,0,0,0,.68-1.87,6.31,6.31,0,0,0-.62-2,12,12,0,0,0-1.79-3.14,4.06,4.06,0,0,0-3.16-1.52c-1.6.09-2.81,1.43-4.38,1.58-1.35.13-2.66-1.13-3.88-.3C143.45,94.78,143.5,99.91,145.4,101.24Z"/><path class="cls-9" d="M136,82.8a3.82,3.82,0,0,0-1.19.69,1.3,1.3,0,0,0-.42,1.25.8.8,0,0,0,1.09.51,1.07,1.07,0,0,0,.35-1.14,3.71,3.71,0,0,1-.18-1.25c.07-.42.53-.81.9-.61"/><path class="cls-5" d="M147.56,82.94c.95-2,1.39-4.92-.42-6.56l0,0a4.88,4.88,0,0,1,1,3.63c-.12,1-.58,1.89-.7,2.88C147.44,83,147.54,83,147.56,82.94Z"/><path class="cls-5" d="M147.29,84.08a.1.1,0,0,0,0-.19A.1.1,0,0,0,147.29,84.08Z"/><path class="cls-5" d="M142.78,96.8a42.89,42.89,0,0,0,1.94-5.27,0,0,0,0,0,0,0,36.21,36.21,0,0,1-1.37,3.67A16.6,16.6,0,0,0,142.21,98c-.33,1.41-.23,3.15,1,4.14a0,0,0,0,0,.05-.05C142,100.5,142.1,98.63,142.78,96.8Z"/><path class="cls-5" d="M143.94,103.25a3.78,3.78,0,0,1-.48-.61.08.08,0,0,0-.13.08,3.69,3.69,0,0,0,.41.66,1,1,0,0,0,.53.42s.08,0,.07-.07A1.64,1.64,0,0,0,143.94,103.25Z"/><path class="cls-5" d="M144.89,103.89a.24.24,0,0,1-.16-.12c0-.08-.15,0-.12.07a.38.38,0,0,0,.23.2C144.94,104.07,145,103.92,144.89,103.89Z"/><path class="cls-5" d="M147.24,76.06c.68-.59,1.66-.3,2.44-.22a13.66,13.66,0,0,1,2,.26,0,0,0,0,0,0-.05c-.54-.55-1.66-.44-2.37-.49a2.62,2.62,0,0,0-2.19.43C147.11,76,147.19,76.11,147.24,76.06Z"/><path class="cls-5" d="M152.74,75.83a1,1,0,0,1,.42-.09.64.64,0,0,0,.3,0,0,0,0,0,0,0-.07c-.18-.21-.6-.06-.81,0S152.64,75.87,152.74,75.83Z"/><path class="cls-5" d="M154.44,75.72a.05.05,0,0,0,0-.11A.05.05,0,0,0,154.44,75.72Z"/><path class="cls-5" d="M151.39,78.12a6.47,6.47,0,0,1-1.78-.23c-.77-.28-1.1-1-1.52-1.63-.05-.09-.17,0-.13.08.29.66.49,1.47,1.19,1.79a7.12,7.12,0,0,0,2.74.38,2.56,2.56,0,0,0,1.8-.41,3,3,0,0,0,.83-1.89c0-.1-.15-.12-.17,0a2.48,2.48,0,0,1-1,1.69A3.53,3.53,0,0,1,151.39,78.12Z"/><path class="cls-5" d="M148.64,76.61a0,0,0,0,0,0,0,2.17,2.17,0,0,0,.58.7,1.23,1.23,0,0,0,.74.33.08.08,0,0,0,0-.14c-.2-.14-.46-.18-.68-.31A2.06,2.06,0,0,1,148.64,76.61Z"/><path class="cls-5" d="M149.91,77c-.19-.06-.36-.16-.54-.24s-.07,0,0,.08.7.55.79.33S150,77,149.91,77Z"/><path class="cls-5" d="M150.28,76.66l-.08-.13c-.06-.1-.2,0-.1.1l.13.08A0,0,0,0,0,150.28,76.66Z"/><path class="cls-5" d="M151.59,76.19a14.57,14.57,0,0,1-2.5-.18s0,0,0,0a10.71,10.71,0,0,0,2.51.28A.07.07,0,0,0,151.59,76.19Z"/><path class="cls-5" d="M152.65,76.25a2.61,2.61,0,0,0,.41,0,.09.09,0,0,0,.09-.07v0a.09.09,0,0,0-.09-.07,2.58,2.58,0,0,0-.41,0A.08.08,0,0,0,152.65,76.25Z"/><path class="cls-5" d="M151.78,75.74l.26,0a.31.31,0,0,0,.19-.07,0,0,0,0,0,0,0,.3.3,0,0,0-.2,0l-.26,0A.07.07,0,1,0,151.78,75.74Z"/><path class="cls-5" d="M152.19,76.68l0,0a.09.09,0,0,0,.09,0l0,0a.14.14,0,1,0-.14,0Z"/><path class="cls-5" d="M151.72,77.4h0a.14.14,0,1,0,0-.25h0A.13.13,0,0,0,151.72,77.4Z"/><path class="cls-5" d="M150.31,74a.13.13,0,0,0,0-.25A.13.13,0,0,0,150.31,74Z"/><path class="cls-5" d="M152.27,74h0a.14.14,0,0,0,.17-.17v0a.17.17,0,1,0-.21.21Z"/><path class="cls-5" d="M154,79.89a23.1,23.1,0,0,0,1.22,4.46c0,.15.28.09.24-.06-.38-1.24-.85-2.49-1.12-3.76a5.91,5.91,0,0,1,1-4.38.07.07,0,0,0-.12-.07A5.82,5.82,0,0,0,154,79.89Z"/><path class="cls-5" d="M155.69,85.62c0,.1,0,.19.13.24h0c.08-.1,0-.2,0-.31a2.07,2.07,0,0,0-.19-.37.08.08,0,0,0-.13.08A1.85,1.85,0,0,1,155.69,85.62Z"/><path class="cls-5" d="M156.37,87.25a1.51,1.51,0,0,0-.06-.27c0-.11-.22-.09-.2,0a1.54,1.54,0,0,0,0,.27C156.19,87.39,156.38,87.38,156.37,87.25Z"/><path class="cls-5" d="M163.82,80.43a4.63,4.63,0,0,0-4.6-1.83,5.29,5.29,0,0,0-4,2.82,5.69,5.69,0,0,1,.53-4.44c.35-.51,1-1.14.33-1.71a2.23,2.23,0,0,0-1.3-.4h-.2c.66-2.08-1.59-2.84-3.33-2.74a8.88,8.88,0,0,0-3.4.91c-.75.38-.53,1.15-.31,1.85-.79.08-1.8.33-1.52,1.25a4.43,4.43,0,0,0,.64.95,4.17,4.17,0,0,1,.51,1.19,6.48,6.48,0,0,1,0,2.79,21.27,21.27,0,0,1-.81,2.88q-.48,1.44-1,2.87-1,2.79-2.13,5.52c-1.76-1.21-1.28-3.26-1.35-5.16a7.26,7.26,0,0,0-1.39-4.36,3.49,3.49,0,0,0-2.87-1.49,1.42,1.42,0,0,0-1.2.87h0c-1.26.53-2.85,3.06-1.55,4.26a.67.67,0,0,0,1.11-.24,3.74,3.74,0,0,0,0-1.63,3.13,3.13,0,0,1,.43-1.91,1.13,1.13,0,0,0,.12.29.11.11,0,0,0,.15,0,.14.14,0,0,0,.07,0c1.89.5,2.23,2.56,2.28,4.24,0,1.5-.05,3-.1,4.48-.07,2.22.16,4.82,2.14,6.2h0a6.26,6.26,0,0,0,.8,4.5,4.66,4.66,0,0,0,2.46,2.11,12.67,12.67,0,0,0,2.31.35c1.08.09,2.17.14,3.25.16a47.91,47.91,0,0,0,6.58-.24,6.26,6.26,0,0,0,1.91-.41,5.58,5.58,0,0,0,2.61-3.14,6.13,6.13,0,0,0,.36-2.27,16,16,0,0,0-1.73-5.35,1.17,1.17,0,0,0,.26-.21.88.88,0,0,0-.14-1.25.11.11,0,0,0-.09-.14c-1.43-.07-.51-1.48-.16-1.86a7.63,7.63,0,0,1,.7-.59c.45-.37.91-.74,1.34-1.13a10.82,10.82,0,0,0,2.19-2.56A4.9,4.9,0,0,0,163.82,80.43Zm-16.17-6.5c.16-.66.82-.82,1.34-1a8.54,8.54,0,0,1,2.13-.44,5.33,5.33,0,0,1,2,.22,1.8,1.8,0,0,1,1.33,1.14,3.23,3.23,0,0,1,0,1c-.94-.06-1.88-.07-2.82-.08-1.17,0-2.33,0-3.5.07l-.47,0A6.81,6.81,0,0,1,147.65,73.93ZM135.82,85.16q0,.27,0,.54-1,1.34-1.14-.32a2.74,2.74,0,0,1,.2-1,3.58,3.58,0,0,1,1.33-1.85A4.12,4.12,0,0,0,135.82,85.16Zm3.56,3.55c0-2.14.09-5.24-2.49-5.93a.14.14,0,0,0-.11,0,.68.68,0,0,1,0-.44l0,0a.13.13,0,0,0,0-.14,1.58,1.58,0,0,1,1.4-.49,3,3,0,0,1,1,.42,4.5,4.5,0,0,1,1.42,1.5,8,8,0,0,1,.93,4.27c0,1.55-.16,4,1.6,4.74a36.56,36.56,0,0,0-1.91,4.76c-1.75-2.15-1.71-5-1.59-7.58,0-.12-.18-.12-.19,0-.15,2.69-.15,5.54,1.67,7.71a.07.07,0,0,0,.06,0l0,.18C138.67,95.39,139.35,91.79,139.37,88.71ZM161,99a5.73,5.73,0,0,1-1.7,4.27,3.51,3.51,0,0,1-2,1,34.47,34.47,0,0,1-5.83.36,39.67,39.67,0,0,1-6-.31,3.8,3.8,0,0,1-1.78-.62,5.61,5.61,0,0,1-2.21-4.05c-.14-1.83.68-3.54,1.39-5.18s1.46-3.46,2.13-5.21,1.32-3.58,1.92-5.39a11.48,11.48,0,0,0,.86-5.09,4.75,4.75,0,0,0-.8-2.15c-.2-.28-.7-.68-.4-1a1.3,1.3,0,0,1,.8-.31,22.3,22.3,0,0,1,2.7-.12c1.16,0,2.32,0,3.48,0,.47,0,2.92,0,2.35.92-.19.32-.46.57-.64.9a4.74,4.74,0,0,0-.43,1.1,6.44,6.44,0,0,0-.15,2.29,24.8,24.8,0,0,0,1.54,5.43q.93,2.67,2,5.29c.33.83.69,1.65,1,2.47a.32.32,0,0,0,.06.14c.38.88.76,1.75,1.09,2.65A8.71,8.71,0,0,1,161,99ZM157.4,88c-.58-1.56-1.16-3.14-1.66-4.74a6,6,0,0,1,3.34-2.63c2.41-.6,3.25,2.17,2.75,4a7,7,0,0,1-2.57,3.5A3.68,3.68,0,0,0,158,89.66Q157.72,88.82,157.4,88Zm2.15,4.33,0,0a.69.69,0,0,1,.23.67.89.89,0,0,1-.25.39l-.51-1.21A.8.8,0,0,0,159.55,92.31Zm2.06-4.23c-.77.7-1.76,1.24-2.47,2a18.81,18.81,0,0,1,2.62-2.46,6.24,6.24,0,0,0,1.94-2.91.07.07,0,0,0-.13-.06,12.5,12.5,0,0,1-2.93,3.59c-.81.69-2,1.41-2.07,2.6a.08.08,0,0,0,.15.05,2,2,0,0,0,0,.36l-.37-.93a4,4,0,0,1,1.5-2.28,9.23,9.23,0,0,0,1.72-1.94,4.67,4.67,0,0,0,.42-4.35c-1.36-3-5.15-1.05-6.28,1.21l-.22-.74-.09-.36a4.94,4.94,0,0,1,6.28-2.68,4.48,4.48,0,0,1,2.16,6A8.5,8.5,0,0,1,161.61,88.08Z"/><path class="cls-5" d="M163.86,83.37a0,0,0,0,0-.07,0,.74.74,0,0,0-.1.39,3.17,3.17,0,0,0,0,.51,0,0,0,0,0,.08,0,3.2,3.2,0,0,0,.11-.5A.74.74,0,0,0,163.86,83.37Z"/><path class="cls-5" d="M163.8,82.65a.2.2,0,0,0-.11-.29c-.13,0-.21.13-.13.22l0,0C163.58,82.71,163.75,82.75,163.8,82.65Z"/><path class="cls-5" d="M158.24,79.59A4.86,4.86,0,0,0,155.59,82a.06.06,0,0,0,.1.06c1.16-1.94,3.55-3.18,5.7-2.12a0,0,0,0,0,.05-.07C160.69,79,159.19,79.23,158.24,79.59Z"/><path class="cls-5" d="M162.27,80.23a.08.08,0,0,0-.08.14,1.29,1.29,0,0,1,.23.25c.07.11.25,0,.18-.11A.6.6,0,0,0,162.27,80.23Z"/><path class="cls-5" d="M162.81,81.1a.1.1,0,0,0,0,.19A.1.1,0,0,0,162.81,81.1Z"/><path class="cls-5" d="M141.06,88.7c.06,1.06-.14,4,1.43,4.2,0,0,.09,0,.06-.08a9.82,9.82,0,0,1-.77-1,5.41,5.41,0,0,1-.39-2.33c-.05-1.09-.11-2.18-.26-3.26-.26-1.86-.95-3.51-2.8-4.17h0C140.79,83.17,140.92,86.42,141.06,88.7Z"/><path class="cls-5" d="M141.91,93a1.39,1.39,0,0,1-.23-.14,2.33,2.33,0,0,1-.3-.41,0,0,0,0,0,0,0,.61.61,0,0,0,.16.53c.12.16.3.32.51.24a.05.05,0,0,0,0-.08A.46.46,0,0,0,141.91,93Z"/><path class="cls-5" d="M141.26,93.53l.16.2a.33.33,0,0,0,.16.13s.06,0,.05-.05-.18-.26-.27-.37S141.21,93.47,141.26,93.53Z"/><path class="cls-5" d="M139.61,88.51c0,.24,0,.48,0,.72,0,.06.09.08.11,0,0-.25.08-.49.11-.74S139.62,88.39,139.61,88.51Z"/><path class="cls-5" d="M139.7,87.74c0-.08,0-.23,0-.27a0,0,0,0,0-.05,0c0,.07,0,.13,0,.2A.06.06,0,1,0,139.7,87.74Z"/><path class="cls-5" d="M139.62,86.53l-.06,0a.06.06,0,0,0,0,.09l.06,0C139.75,86.74,139.75,86.48,139.62,86.53Z"/><path class="cls-5" d="M135.39,84.82a2,2,0,0,0,0,.54,1.8,1.8,0,0,1-.21.69,0,0,0,0,0,0,0,1.18,1.18,0,0,0,.36-.66c0-.21.07-.48-.1-.63A0,0,0,0,0,135.39,84.82Z"/><path class="cls-5" d="M135.46,84.45l.05-.29c0-.08,0-.13,0-.2h-.05c-.07.05-.06.11-.06.19l0,.3C135.35,84.5,135.45,84.51,135.46,84.45Z"/><path class="cls-5" d="M135.57,83.3a.08.08,0,0,0,0,.15A.08.08,0,0,0,135.57,83.3Z"/><path class="cls-5" d="M140.51,86.62c.18-1.21-.57-3.48-1.81-4,0,0-.08.06,0,.08,1.32.75,1.42,2.59,1.78,3.88C140.46,86.65,140.51,86.65,140.51,86.62Z"/><path class="cls-5" d="M140.53,87.32v0a.12.12,0,0,0,.23,0v0A.13.13,0,1,0,140.53,87.32Z"/><path class="cls-5" d="M159.43,98.09c-.29-1-.58-2.09-.95-3.1a6.21,6.21,0,0,0-3.22-3.91c-1.52-.61-3.07-.05-4.51.52a13.54,13.54,0,0,1-2.54.86c-.92.17-1.83-.13-2.74,0s-1.16.68-1.48,1.4a15.26,15.26,0,0,0-1,3.48c-1.09,1.74-.32,4.08,1.15,5.32,0,0,.06,0,0,0a5.49,5.49,0,0,1-.68-.82,1.45,1.45,0,0,0,.48.33,4.07,4.07,0,0,0,.83.71c1.71,1.11,3.85,1,5.8,1,2.72-.06,8.57.76,9.2-3.15A6.19,6.19,0,0,0,159.43,98.09Zm-16.64,2.2a4.53,4.53,0,0,1,0-2.05,7.8,7.8,0,0,0,.07,2.46C142.86,100.56,142.82,100.43,142.79,100.29Zm16.41,1.15a3.93,3.93,0,0,1-2.17,1.66,12,12,0,0,1-4.51.42,33.35,33.35,0,0,1-5.67-.24c-2-.41-3.89-1.91-3.54-4.12,0-.11-.14-.17-.18-.06a12.72,12.72,0,0,1,.25-2.11,13.82,13.82,0,0,1,.4-1.58.09.09,0,0,0,.07,0l0,0a.14.14,0,0,0,0-.14q.09-.28.2-.56a4.24,4.24,0,0,1,.5-1.17,1.89,1.89,0,0,1,1.78-.67,7.94,7.94,0,0,0,3.58-.52,11.39,11.39,0,0,1,3.93-1.16c3.63,0,4.53,4.68,5.32,7.39A3.91,3.91,0,0,1,159.21,101.44Z"/><path class="cls-5" d="M155.44,92.11a0,0,0,0,0,0,0c-1-.66-2.29-.21-3.33.21A11.17,11.17,0,0,1,150,93a10.21,10.21,0,0,1-2.6,0s-.05.06,0,.08a5.28,5.28,0,0,0,3.48-.06C152.47,92.49,153.67,91.73,155.44,92.11Z"/><path class="cls-5" d="M155.26,92.72a3.26,3.26,0,0,1,1.69,1.12,0,0,0,0,0,.08,0c-.28-1-1.53-1.36-2.45-1.37-1.73,0-3.38.84-5.12,1,0,0-.06.07,0,.08a7.42,7.42,0,0,0,3.34-.53A5.2,5.2,0,0,1,155.26,92.72Z"/><path class="cls-5" d="M157.22,94.84c0,.12,0,.25.17.3a.05.05,0,0,0,.06,0c.07-.11,0-.24-.05-.35s-.12-.31-.18-.46a.07.07,0,0,0-.13,0C157.13,94.51,157.17,94.68,157.22,94.84Z"/><path class="cls-5" d="M157.64,95.72a0,0,0,0,0,.07,0l0-.1c0-.11-.16-.11-.13,0Z"/><path class="cls-5" d="M149.18,92.88a7,7,0,0,0,1.83-.52c.68-.27,1.36-.42,2-.64a0,0,0,0,0,0-.07c-1.29-.15-2.62.91-3.88,1.15C149.13,92.81,149.13,92.89,149.18,92.88Z"/><path class="cls-5" d="M153.61,91.58a.77.77,0,0,1,.32,0,0,0,0,0,0,0,0,.36.36,0,0,0-.37-.07A0,0,0,0,0,153.61,91.58Z"/><path class="cls-5" d="M154,93a26.71,26.71,0,0,1-3.78.76,0,0,0,0,0,0,.06c1.73,0,3.93-1.34,5.51-.31.05,0,.09,0,.06-.08A1.74,1.74,0,0,0,154,93Z"/><path class="cls-5" d="M156.1,93.78l-.09-.09a.09.09,0,0,0-.13.13l.09.09C156.05,94,156.19,93.86,156.1,93.78Z"/><path class="cls-5" d="M145.8,93a.85.85,0,0,0-.77.29c-.16.16-.41.52-.25.75a.06.06,0,0,0,.09,0,.6.6,0,0,0,.1-.25.91.91,0,0,1,.19-.35,1.36,1.36,0,0,1,.65-.36A0,0,0,0,0,145.8,93Z"/><path class="cls-5" d="M145.83,93.45c-.22.06-.55.27-.54.53a0,0,0,0,0,.05,0c.08-.08.12-.18.2-.27a.78.78,0,0,1,.31-.21S145.88,93.43,145.83,93.45Z"/><path class="cls-5" d="M146,94.09v.11a.05.05,0,0,0,.09,0l.09-.08C146.32,94.05,146,93.89,146,94.09Z"/><path class="cls-5" d="M155.89,92.52a.48.48,0,0,1,.29.09l.1.1.1.07a0,0,0,0,0,0,0,.29.29,0,0,0-.18-.26.58.58,0,0,0-.35-.08A0,0,0,0,0,155.89,92.52Z"/><path class="cls-5" d="M152.47,79.25a.09.09,0,0,0-.16,0,1.53,1.53,0,0,0,0,1.39.48.48,0,0,0,.83-.06,1.24,1.24,0,0,0,.06-.71,2,2,0,0,0-.11-.7c-.13-.26-.58-.36-.62,0a.1.1,0,0,0,.15.09c.26-.16.25.35.26.49s0,.19,0,.29,0,.3-.15.41-.19.05-.26-.1a1,1,0,0,1-.08-.35C152.44,79.72,152.49,79.48,152.47,79.25Z"/><path class="cls-5" d="M153.64,88.33c.29.85,1.22.84,1.37-.09a5,5,0,0,0-.46-2.26,13.65,13.65,0,0,1-.75-3.18c0-.38,0-1-.35-1.17a.59.59,0,0,0-.81.29.14.14,0,0,0,0,.09s-.11,0-.1,0a23,23,0,0,0,.49,3A22.74,22.74,0,0,0,153.64,88.33Zm-.76-6.27.57.25,0,.33a5.61,5.61,0,0,1,.07.68,12,12,0,0,0,.26,1.33c.24.94.72,1.81.9,2.76l.06.59-.85-.07c-.09-.07-.12-.62-.15-.74q-.17-.84-.34-1.67a27.87,27.87,0,0,0-.78-3.45A.15.15,0,0,0,152.88,82.06Z"/><path class="cls-5" d="M154.41,89.45l.28-.05a.63.63,0,0,0,.27-.06.14.14,0,0,0,0-.24.47.47,0,0,0-.34,0,1,1,0,0,0-.32.13A.13.13,0,0,0,154.41,89.45Z"/><path class="cls-5" d="M154.47,89.9l.29-.06c.1,0,.19,0,.27-.07a.12.12,0,0,0,0-.17c-.18-.14-.48,0-.64.11S154.35,89.94,154.47,89.9Z"/><path class="cls-5" d="M155.05,90.61a.15.15,0,0,0,0-.3h0l0,0a.09.09,0,0,0,0-.07.13.13,0,0,0-.12-.09h-.32a.11.11,0,0,0,0,.23h.34A.15.15,0,0,0,155.05,90.61Z"/><path class="cls-5" d="M158.1,102.21c-.29-.06-.57.21-.83.32a6,6,0,0,1-1.29.36c-.08,0-.05.13,0,.13a3.06,3.06,0,0,0,1.33-.18c.28-.1.75-.23.81-.56A.06.06,0,0,0,158.1,102.21Z"/><path class="cls-5" d="M157,102l-.7.32c-.12.05,0,.26.09.21l.72-.28c.18-.07.39-.11.48-.3a.06.06,0,0,0,0-.09C157.34,101.75,157.16,101.88,157,102Z"/><path class="cls-5" d="M157.3,101.44c.06-.08,0-.21-.13-.17a2.68,2.68,0,0,0-.32.18,1.64,1.64,0,0,1-.37.15c-.1,0-.08.2,0,.19A1.14,1.14,0,0,0,157.3,101.44Z"/><path class="cls-5" d="M156.7,100.8a1,1,0,0,1-.39.17c-.11,0-.09.21,0,.2s.76-.16.73-.49c0,0,0-.06-.05-.05A.62.62,0,0,0,156.7,100.8Z"/><path class="cls-5" d="M156.49,100.58l.26-.16a.44.44,0,0,0,.19-.17,0,0,0,0,0,0-.06,1.14,1.14,0,0,0-.49.25C156.33,100.5,156.4,100.64,156.49,100.58Z"/><path class="cls-5" d="M156.35,99.74a.49.49,0,0,0,.1-.16.06.06,0,0,0-.07-.07.49.49,0,0,0-.16.1C156.12,99.68,156.27,99.84,156.35,99.74Z"/><path class="cls-5" d="M156.45,98.72a.12.12,0,0,0,0,.24A.12.12,0,0,0,156.45,98.72Z"/><path class="cls-5" d="M160.18,101.06s.06.11.1.06c.86-1.1.09-2.86-.44-3.92a0,0,0,0,0,0,0,11.53,11.53,0,0,1,.54,1.9A6.16,6.16,0,0,1,160.18,101.06Z"/><path class="cls-5" d="M159.81,101.74l0,0c-.07.09.06.22.15.15l0,0A.12.12,0,1,0,159.81,101.74Z"/></g></g></svg>