<?xml version="1.0" encoding="utf-8"?>
<svg width="428px" height="82px" viewbox="0 0 428 82" version="1.1" xmlns:xlink="http://www.w3.org/1999/xlink" xmlns="http://www.w3.org/2000/svg">
  <defs>
    <filter filterUnits="userSpaceOnUse" color-interpolation-filters="sRGB" id="filter_1">
      <feFlood flood-opacity="0" result="BackgroundImageFix" />
      <feColorMatrix in="SourceAlpha" type="matrix" values="0 0 0 0 0 0 0 0 0 0 0 0 0 0 0 0 0 0 127 0" />
      <feMorphology radius="4" operator="dilate" in="SourceAlpha" result="effect0_dropShadow" />
      <feOffset dx="0" dy="2" />
      <feGaussianBlur stdDeviation="8.5" />
      <feColorMatrix type="matrix" values="0 0 0 0 0.40784314 0 0 0 0 0.40784314 0 0 0 0 0.40784314 0 0 0 1 0" />
      <feBlend mode="normal" in2="BackgroundImageFix" result="effect0_dropShadow" />
      <feBlend mode="normal" in="SourceGraphic" in2="effect0_dropShadow" result="shape" />
    </filter>
    <path d="M0 0L23.3 0L23.3 23.3L0 23.3L0 0Z" id="path_1" />
    <path d="M0 0L25.32 0L25.32 25.32L0 25.32L0 0Z" id="path_2" />
    <rect width="428" height="82" id="artboard_1" />
    <clipPath id="clip_1">
      <use xlink:href="#artboard_1" clip-rule="evenodd" />
    </clipPath>
    <clipPath id="mask_1">
      <use xlink:href="#path_1" />
    </clipPath>
    <clipPath id="mask_2">
      <use xlink:href="#path_2" />
    </clipPath>
  </defs>
  <g id="Artboard" clip-path="url(#clip_1)">
    <use xlink:href="#artboard_1" stroke="none" fill="#FFFFFF" />
    <g filter="url(#filter_1)">
      <g id="ControlsEdit-MenuSingle-Action" transform="translate(0.96952873 11.952393)">
        <path d="M397.029 0.0487646L28.0316 0.0487671C26.5879 0.0496561 25.1442 0.0498453 23.7006 0.0500345C20.8132 0.0504128 17.9258 0.0507912 15.0385 0.0567684C14.5561 0.0577669 14.0509 0.0519852 13.5301 0.0460251C8.54645 -0.0110099 2.13654 -0.0843673 0.692321 5.61174C0.358595 6.92798 0.23508 8.29423 0.160045 9.64631C0.0601409 11.4465 0.0433317 13.254 0.0396015 15.0563C0.0336256 17.9435 0.0332476 20.8307 0.0328696 23.7179C0.0326805 25.1615 0.0324915 26.6052 0.0316028 28.0488C0.0324919 29.4924 0.0326813 30.9361 0.0328706 32.3798C0.0332492 35.2672 0.0336279 38.1545 0.0396053 41.0419C0.0406479 41.5455 0.031185 42.0888 0.0212492 42.6592C-0.0565717 47.127 -0.163404 53.2604 4.52127 55.0515C7.2803 56.1064 10.526 56.0766 13.5144 56.0492C14.0316 56.0444 14.5412 56.0397 15.0391 56.0408C17.9261 56.0467 20.813 56.0471 23.6999 56.0475C25.1438 56.0477 26.5877 56.0479 28.0316 56.0488L205.6 56.0488L205.53 56.1174L212.53 63.0477L219.53 56.1174L219.461 56.0488L397.029 56.0488C398.473 56.0479 399.916 56.0477 401.36 56.0475C404.247 56.0471 407.135 56.0467 410.023 56.0408C410.56 56.0396 411.147 56.0528 411.768 56.0667C415.464 56.1493 420.344 56.2584 422.837 53.5487C425.222 50.9569 425.123 46.3786 425.046 42.8026C425.033 42.1798 425.02 41.5874 425.021 41.0412C425.027 38.1517 425.028 35.2621 425.028 32.3726C425.028 30.9313 425.028 29.49 425.029 28.0488C425.028 26.6074 425.028 25.1661 425.028 23.7247C425.028 20.835 425.027 17.9453 425.021 15.0556C425.02 14.5031 425.032 13.9104 425.045 13.2914C425.114 9.83304 425.2 5.55498 423.121 2.88333C420.743 -0.172108 415.566 -0.0553287 411.746 0.0308745C411.13 0.0447627 410.55 0.0578572 410.022 0.0567646C407.135 0.0507885 404.247 0.0504102 401.36 0.0500319C399.917 0.0498427 398.473 0.0496535 397.029 0.0487646Z" id="base" fill="#202020" fill-opacity="0.92156863" fill-rule="evenodd" stroke="none" />
      </g>
    </g>
    <g id="Group" transform="translate(14 16.349976)">
      <g id="Install-this-App-in-your-iPhon" transform="translate(0 3.1500244)">
        <g id="Install-this-App-in-your-iPhone-tap-------and-then--------Add" fill="#FFFFFF">
          <path d="M36.2422 16.1016L34.9609 16.1016L34.9609 4.25781L36.2422 4.25781L36.2422 16.1016ZM38.8359 16.1016L40.1172 16.1016L40.1172 4.25781L38.8359 4.25781L38.8359 16.1016ZM57.875 16.1016L59.1563 16.1016L59.1563 11.1719Q59.1563 7.91406 56.4531 7.91406Q54.75 7.91406 53.8281 9.42969L53.7969 9.42969L53.7969 4.25781L52.5156 4.25781L52.5156 16.1016L53.7969 16.1016L53.7969 11.5703Q53.7969 10.4375 54.4375 9.71484Q55.0781 8.99219 56.0156 8.99219Q57.875 8.99219 57.875 11.4922L57.875 16.1016ZM181.758 16.1016L183.039 16.1016L183.039 11.1719Q183.039 7.91406 180.336 7.91406Q178.633 7.91406 177.711 9.42969L177.68 9.42969L177.68 4.25781L176.398 4.25781L176.398 16.1016L177.68 16.1016L177.68 11.5703Q177.68 10.4375 178.32 9.71484Q178.961 8.99219 179.898 8.99219Q181.758 8.99219 181.758 11.4922L181.758 16.1016ZM294.305 16.1016L293.023 16.1016L293.023 14.7422L292.992 14.7422Q292.102 16.2891 290.242 16.2891Q288.734 16.2891 287.832 15.2148Q286.93 14.1406 286.93 12.2891Q286.93 10.3047 287.93 9.10938Q288.93 7.91406 290.594 7.91406Q292.242 7.91406 292.992 9.21094L293.023 9.21094L293.023 4.25781L294.305 4.25781L294.305 16.1016ZM313.344 16.1016L312.063 16.1016L312.063 11.4922Q312.063 8.99219 310.203 8.99219Q309.266 8.99219 308.625 9.71484Q307.984 10.4375 307.984 11.5703L307.984 16.1016L306.703 16.1016L306.703 4.25781L307.984 4.25781L307.984 9.42969L308.016 9.42969Q308.938 7.91406 310.641 7.91406Q313.344 7.91406 313.344 11.1719L313.344 16.1016ZM385.391 16.1016L384.109 16.1016L384.109 14.7422L384.078 14.7422Q383.188 16.2891 381.328 16.2891Q379.82 16.2891 378.918 15.2148Q378.016 14.1406 378.016 12.2891Q378.016 10.3047 379.016 9.10938Q380.016 7.91406 381.68 7.91406Q383.328 7.91406 384.078 9.21094L384.109 9.21094L384.109 4.25781L385.391 4.25781L385.391 16.1016ZM393.531 16.1016L394.813 16.1016L394.813 4.25781L393.531 4.25781L393.531 9.21094L393.5 9.21094Q392.75 7.91406 391.102 7.91406Q389.438 7.91406 388.438 9.10938Q387.438 10.3047 387.438 12.2891Q387.438 14.1406 388.34 15.2148Q389.242 16.2891 390.75 16.2891Q392.609 16.2891 393.5 14.7422L393.531 14.7422L393.531 16.1016ZM62.2266 6.07031Q61.8828 6.07031 61.6406 5.83594Q61.3984 5.60156 61.3984 5.24219Q61.3984 4.88281 61.6406 4.64453Q61.8828 4.40625 62.2266 4.40625Q62.5781 4.40625 62.8242 4.64453Q63.0703 4.88281 63.0703 5.24219Q63.0703 5.58594 62.8242 5.82813Q62.5781 6.07031 62.2266 6.07031ZM110.203 5.83594Q110.445 6.07031 110.789 6.07031Q111.141 6.07031 111.387 5.82813Q111.633 5.58594 111.633 5.24219Q111.633 4.88281 111.387 4.64453Q111.141 4.40625 110.789 4.40625Q110.445 4.40625 110.203 4.64453Q109.961 4.88281 109.961 5.24219Q109.961 5.60156 110.203 5.83594ZM163.633 5.83594Q163.875 6.07031 164.219 6.07031Q164.57 6.07031 164.816 5.82813Q165.063 5.58594 165.063 5.24219Q165.063 4.88281 164.816 4.64453Q164.57 4.40625 164.219 4.40625Q163.875 4.40625 163.633 4.64453Q163.391 4.88281 163.391 5.24219Q163.391 5.60156 163.633 5.83594ZM2.78125 16.1016L1.46875 16.1016L1.46875 4.89844L2.78125 4.89844L2.78125 16.1016ZM85.4609 16.1016L84.0078 16.1016L82.8203 12.9609L78.0703 12.9609L76.9531 16.1016L75.4922 16.1016L79.7891 4.89844L81.1484 4.89844L85.4609 16.1016ZM168.922 11.8672L168.922 16.1016L167.609 16.1016L167.609 4.89844L170.688 4.89844Q172.484 4.89844 173.473 5.77344Q174.461 6.64844 174.461 8.24219Q174.461 9.83594 173.363 10.8516Q172.266 11.8672 170.398 11.8672L168.922 11.8672ZM375.633 16.1016L377.086 16.1016L372.773 4.89844L371.414 4.89844L367.117 16.1016L368.578 16.1016L369.695 12.9609L374.445 12.9609L375.633 16.1016ZM25.1094 16.0234Q24.6563 16.2734 23.9141 16.2734Q21.8125 16.2734 21.8125 13.9297L21.8125 9.19531L20.4375 9.19531L20.4375 8.10156L21.8125 8.10156L21.8125 6.14844L23.0938 5.73438L23.0938 8.10156L25.1094 8.10156L25.1094 9.19531L23.0938 9.19531L23.0938 13.7031Q23.0938 14.5078 23.3672 14.8516Q23.6406 15.1953 24.2734 15.1953Q24.7578 15.1953 25.1094 14.9297L25.1094 16.0234ZM50.8047 16.0234Q50.3516 16.2734 49.6094 16.2734Q47.5078 16.2734 47.5078 13.9297L47.5078 9.19531L46.1328 9.19531L46.1328 8.10156L47.5078 8.10156L47.5078 6.14844L48.7891 5.73438L48.7891 8.10156L50.8047 8.10156L50.8047 9.19531L48.7891 9.19531L48.7891 13.7031Q48.7891 14.5078 49.0625 14.8516Q49.3359 15.1953 49.9688 15.1953Q50.4531 15.1953 50.8047 14.9297L50.8047 16.0234ZM219.148 16.2734Q219.891 16.2734 220.344 16.0234L220.344 14.9297Q219.992 15.1953 219.508 15.1953Q218.875 15.1953 218.602 14.8516Q218.328 14.5078 218.328 13.7031L218.328 9.19531L220.344 9.19531L220.344 8.10156L218.328 8.10156L218.328 5.73438L217.047 6.14844L217.047 8.10156L215.672 8.10156L215.672 9.19531L217.047 9.19531L217.047 13.9297Q217.047 16.2734 219.148 16.2734ZM303.797 16.2734Q304.539 16.2734 304.992 16.0234L304.992 14.9297Q304.641 15.1953 304.156 15.1953Q303.523 15.1953 303.25 14.8516Q302.977 14.5078 302.977 13.7031L302.977 9.19531L304.992 9.19531L304.992 8.10156L302.977 8.10156L302.977 5.73438L301.695 6.14844L301.695 8.10156L300.32 8.10156L300.32 9.19531L301.695 9.19531L301.695 13.9297Q301.695 16.2734 303.797 16.2734ZM168.922 6.08594L168.922 10.6797L170.297 10.6797Q171.656 10.6797 172.371 10.0586Q173.086 9.4375 173.086 8.30469Q173.086 6.08594 170.461 6.08594L168.922 6.08594ZM82.3906 11.7813L80.6328 7.00781Q80.5469 6.77344 80.4609 6.25781L80.4297 6.25781Q80.3516 6.73438 80.25 7.00781L78.5078 11.7813L82.3906 11.7813ZM372.258 7.00781L374.016 11.7813L370.133 11.7813L371.875 7.00781Q371.977 6.73438 372.055 6.25781L372.086 6.25781Q372.172 6.77344 372.258 7.00781ZM12.1953 16.1016L10.9141 16.1016L10.9141 11.5391Q10.9141 8.99219 9.05469 8.99219Q8.09375 8.99219 7.46484 9.71484Q6.83594 10.4375 6.83594 11.5391L6.83594 16.1016L5.55469 16.1016L5.55469 8.10156L6.83594 8.10156L6.83594 9.42969L6.86719 9.42969Q7.77344 7.91406 9.49219 7.91406Q10.8047 7.91406 11.5 8.76172Q12.1953 9.60938 12.1953 11.2109L12.1953 16.1016ZM14.125 14.4375L14.125 15.8125Q15.0313 16.2891 16.2656 16.2891Q16.8906 16.2891 17.4609 16.1484Q18.0313 16.0078 18.4688 15.7188Q18.9063 15.4297 19.168 14.9922Q19.4297 14.5547 19.4297 13.9609Q19.4297 13.4766 19.2695 13.125Q19.1094 12.7734 18.8125 12.5039Q18.5156 12.2344 18.0938 12.0195Q17.6719 11.8047 17.1406 11.6016Q16.7422 11.4453 16.4297 11.3125Q16.1172 11.1797 15.8984 11.0156Q15.6797 10.8516 15.5664 10.6406Q15.4531 10.4297 15.4531 10.1172Q15.4531 9.86719 15.5664 9.66016Q15.6797 9.45313 15.8867 9.30469Q16.0938 9.15625 16.3828 9.07422Q16.6719 8.99219 17.0313 8.99219Q18.1797 8.99219 19.0625 9.57031L19.0625 8.27344Q18.2422 7.91406 17.2031 7.91406Q16.6172 7.91406 16.0664 8.0625Q15.5156 8.21094 15.0859 8.50391Q14.6563 8.79688 14.3984 9.23047Q14.1406 9.66406 14.1406 10.2266Q14.1406 10.6875 14.2773 11.0313Q14.4141 11.375 14.6836 11.6445Q14.9531 11.9141 15.3555 12.1289Q15.7578 12.3438 16.2891 12.5547Q16.6719 12.7031 17.0039 12.8398Q17.3359 12.9766 17.582 13.1484Q17.8281 13.3203 17.9727 13.543Q18.1172 13.7656 18.1172 14.0859Q18.1172 15.2109 16.4297 15.2109Q15.1719 15.2109 14.125 14.4375ZM31.2656 16.1016L32.5469 16.1016L32.5469 10.8984Q32.5469 7.91406 29.7266 7.91406Q28.1875 7.91406 27.0078 8.66406L27.0078 9.97656Q28.1719 8.99219 29.6172 8.99219Q31.2656 8.99219 31.2656 11.0313L28.8672 11.3672Q26.2266 11.7344 26.2266 13.9766Q26.2266 15.0234 26.9023 15.6563Q27.5781 16.2891 28.7734 16.2891Q30.3984 16.2891 31.2344 14.8516L31.2656 14.8516L31.2656 16.1016ZM64.9609 14.4375L64.9609 15.8125Q65.8672 16.2891 67.1016 16.2891Q67.7266 16.2891 68.2969 16.1484Q68.8672 16.0078 69.3047 15.7188Q69.7422 15.4297 70.0039 14.9922Q70.2656 14.5547 70.2656 13.9609Q70.2656 13.4766 70.1055 13.125Q69.9453 12.7734 69.6484 12.5039Q69.3516 12.2344 68.9297 12.0195Q68.5078 11.8047 67.9766 11.6016Q67.5781 11.4453 67.2656 11.3125Q66.9531 11.1797 66.7344 11.0156Q66.5156 10.8516 66.4023 10.6406Q66.2891 10.4297 66.2891 10.1172Q66.2891 9.86719 66.4023 9.66016Q66.5156 9.45313 66.7227 9.30469Q66.9297 9.15625 67.2188 9.07422Q67.5078 8.99219 67.8672 8.99219Q69.0156 8.99219 69.8984 9.57031L69.8984 8.27344Q69.0781 7.91406 68.0391 7.91406Q67.4531 7.91406 66.9023 8.0625Q66.3516 8.21094 65.9219 8.50391Q65.4922 8.79688 65.2344 9.23047Q64.9766 9.66406 64.9766 10.2266Q64.9766 10.6875 65.1133 11.0313Q65.25 11.375 65.5195 11.6445Q65.7891 11.9141 66.1914 12.1289Q66.5938 12.3438 67.125 12.5547Q67.5078 12.7031 67.8398 12.8398Q68.1719 12.9766 68.418 13.1484Q68.6641 13.3203 68.8086 13.543Q68.9531 13.7656 68.9531 14.0859Q68.9531 15.2109 67.2656 15.2109Q66.0078 15.2109 64.9609 14.4375ZM88.2188 14.9453L88.25 14.9453Q89.0938 16.2891 90.6484 16.2891Q92.3438 16.2891 93.3203 15.082Q94.2969 13.875 94.2969 11.8672Q94.2969 10.0625 93.4297 8.98828Q92.5625 7.91406 91.0156 7.91406Q89.1953 7.91406 88.25 9.50781L88.2188 9.50781L88.2188 8.10156L86.9375 8.10156L86.9375 19.7813L88.2188 19.7813L88.2188 14.9453ZM97.6563 14.9453L97.625 14.9453L97.625 19.7813L96.3438 19.7813L96.3438 8.10156L97.625 8.10156L97.625 9.50781L97.6563 9.50781Q98.6016 7.91406 100.422 7.91406Q101.969 7.91406 102.836 8.98828Q103.703 10.0625 103.703 11.8672Q103.703 13.875 102.727 15.082Q101.75 16.2891 100.055 16.2891Q98.5 16.2891 97.6563 14.9453ZM120.648 16.1016L119.367 16.1016L119.367 11.5391Q119.367 8.99219 117.508 8.99219Q116.547 8.99219 115.918 9.71484Q115.289 10.4375 115.289 11.5391L115.289 16.1016L114.008 16.1016L114.008 8.10156L115.289 8.10156L115.289 9.42969L115.32 9.42969Q116.227 7.91406 117.945 7.91406Q119.258 7.91406 119.953 8.76172Q120.648 9.60938 120.648 11.2109L120.648 16.1016ZM138.531 16.2891Q136.758 16.2891 135.699 15.168Q134.641 14.0469 134.641 12.1953Q134.641 10.1797 135.742 9.04688Q136.844 7.91406 138.719 7.91406Q140.508 7.91406 141.512 9.01563Q142.516 10.1172 142.516 12.0703Q142.516 13.9844 141.434 15.1367Q140.352 16.2891 138.531 16.2891ZM188.797 16.2891Q187.023 16.2891 185.965 15.168Q184.906 14.0469 184.906 12.1953Q184.906 10.1797 186.008 9.04688Q187.109 7.91406 188.984 7.91406Q190.773 7.91406 191.777 9.01563Q192.781 10.1172 192.781 12.0703Q192.781 13.9844 191.699 15.1367Q190.617 16.2891 188.797 16.2891ZM200.188 16.1016L201.469 16.1016L201.469 11.2109Q201.469 9.60938 200.773 8.76172Q200.078 7.91406 198.766 7.91406Q197.047 7.91406 196.141 9.42969L196.109 9.42969L196.109 8.10156L194.828 8.10156L194.828 16.1016L196.109 16.1016L196.109 11.5391Q196.109 10.4375 196.738 9.71484Q197.367 8.99219 198.328 8.99219Q200.188 8.99219 200.188 11.5391L200.188 16.1016ZM210.313 12.4219L204.664 12.4219Q204.695 13.7578 205.383 14.4844Q206.07 15.2109 207.273 15.2109Q208.625 15.2109 209.758 14.3203L209.758 15.5234Q208.703 16.2891 206.969 16.2891Q205.273 16.2891 204.305 15.1992Q203.336 14.1094 203.336 12.1328Q203.336 10.2656 204.395 9.08984Q205.453 7.91406 207.023 7.91406Q208.594 7.91406 209.453 8.92969Q210.313 9.94531 210.313 11.75L210.313 12.4219ZM227.781 16.1016L226.5 16.1016L226.5 14.8516L226.469 14.8516Q225.633 16.2891 224.008 16.2891Q222.813 16.2891 222.137 15.6563Q221.461 15.0234 221.461 13.9766Q221.461 11.7344 224.102 11.3672L226.5 11.0313Q226.5 8.99219 224.852 8.99219Q223.406 8.99219 222.242 9.97656L222.242 8.66406Q223.422 7.91406 224.961 7.91406Q227.781 7.91406 227.781 10.8984L227.781 16.1016ZM231.477 14.9453L231.508 14.9453Q232.352 16.2891 233.906 16.2891Q235.602 16.2891 236.578 15.082Q237.555 13.875 237.555 11.8672Q237.555 10.0625 236.688 8.98828Q235.82 7.91406 234.273 7.91406Q232.453 7.91406 231.508 9.50781L231.477 9.50781L231.477 8.10156L230.195 8.10156L230.195 19.7813L231.477 19.7813L231.477 14.9453ZM276.008 16.1016L274.727 16.1016L274.727 14.8516L274.695 14.8516Q273.859 16.2891 272.234 16.2891Q271.039 16.2891 270.363 15.6563Q269.688 15.0234 269.688 13.9766Q269.688 11.7344 272.328 11.3672L274.727 11.0313Q274.727 8.99219 273.078 8.99219Q271.633 8.99219 270.469 9.97656L270.469 8.66406Q271.648 7.91406 273.188 7.91406Q276.008 7.91406 276.008 10.8984L276.008 16.1016ZM283.781 16.1016L285.063 16.1016L285.063 11.2109Q285.063 9.60938 284.367 8.76172Q283.672 7.91406 282.359 7.91406Q280.641 7.91406 279.734 9.42969L279.703 9.42969L279.703 8.10156L278.422 8.10156L278.422 16.1016L279.703 16.1016L279.703 11.5391Q279.703 10.4375 280.332 9.71484Q280.961 8.99219 281.922 8.99219Q283.781 8.99219 283.781 11.5391L283.781 16.1016ZM316.539 12.4219L322.188 12.4219L322.188 11.75Q322.188 9.94531 321.328 8.92969Q320.469 7.91406 318.898 7.91406Q317.328 7.91406 316.27 9.08984Q315.211 10.2656 315.211 12.1328Q315.211 14.1094 316.18 15.1992Q317.148 16.2891 318.844 16.2891Q320.578 16.2891 321.633 15.5234L321.633 14.3203Q320.5 15.2109 319.148 15.2109Q317.945 15.2109 317.258 14.4844Q316.57 13.7578 316.539 12.4219ZM330.766 16.1016L329.484 16.1016L329.484 11.5391Q329.484 8.99219 327.625 8.99219Q326.664 8.99219 326.035 9.71484Q325.406 10.4375 325.406 11.5391L325.406 16.1016L324.125 16.1016L324.125 8.10156L325.406 8.10156L325.406 9.42969L325.438 9.42969Q326.344 7.91406 328.063 7.91406Q329.375 7.91406 330.07 8.76172Q330.766 9.60938 330.766 11.2109L330.766 16.1016ZM157.789 9.39844Q157.453 9.14063 156.82 9.14063Q156 9.14063 155.449 9.91406Q154.898 10.6875 154.898 12.0234L154.898 16.1016L153.617 16.1016L153.617 8.10156L154.898 8.10156L154.898 9.75L154.93 9.75Q155.203 8.90625 155.766 8.43359Q156.328 7.96094 157.023 7.96094Q157.523 7.96094 157.789 8.07031L157.789 9.39844ZM62.8516 16.1016L61.5703 16.1016L61.5703 8.10156L62.8516 8.10156L62.8516 16.1016ZM110.133 16.1016L111.414 16.1016L111.414 8.10156L110.133 8.10156L110.133 16.1016ZM130.133 17.3828L133.813 8.10156L132.484 8.10156L130.211 14.2734Q130.094 14.6797 130.055 14.8672L130.008 14.8672Q129.883 14.375 129.844 14.2578L127.68 8.10156L126.258 8.10156L129.383 16.0859L128.742 17.6016Q128.258 18.7578 127.289 18.7578Q126.945 18.7578 126.531 18.6172L126.531 19.7656Q126.867 19.8672 127.367 19.8672Q129.148 19.8672 130.133 17.3828ZM149.75 16.1016L151.031 16.1016L151.031 8.10156L149.75 8.10156L149.75 12.7109Q149.75 13.8281 149.145 14.5195Q148.539 15.2109 147.602 15.2109Q145.664 15.2109 145.664 12.6797L145.664 8.10156L144.391 8.10156L144.391 12.8828Q144.391 16.2891 147.25 16.2891Q148.922 16.2891 149.719 14.8359L149.75 14.8359L149.75 16.1016ZM163.563 16.1016L164.844 16.1016L164.844 8.10156L163.563 8.10156L163.563 16.1016ZM88.2188 12.8359L88.2188 11.7188Q88.2188 10.5469 88.8984 9.76953Q89.5781 8.99219 90.6953 8.99219Q91.75 8.99219 92.3672 9.75Q92.9844 10.5078 92.9844 11.8438Q92.9844 13.4297 92.3242 14.3203Q91.6641 15.2109 90.5 15.2109Q89.5078 15.2109 88.8633 14.5195Q88.2188 13.8281 88.2188 12.8359ZM97.625 11.7188L97.625 12.8359Q97.625 13.8281 98.2695 14.5195Q98.9141 15.2109 99.9063 15.2109Q101.07 15.2109 101.73 14.3203Q102.391 13.4297 102.391 11.8438Q102.391 10.5078 101.773 9.75Q101.156 8.99219 100.102 8.99219Q98.9844 8.99219 98.3047 9.76953Q97.625 10.5469 97.625 11.7188ZM138.625 8.99219Q137.391 8.99219 136.672 9.83203Q135.953 10.6719 135.953 12.1484Q135.953 13.5703 136.68 14.3906Q137.406 15.2109 138.625 15.2109Q139.867 15.2109 140.535 14.4063Q141.203 13.6016 141.203 12.1172Q141.203 10.6172 140.535 9.80469Q139.867 8.99219 138.625 8.99219ZM188.891 8.99219Q187.656 8.99219 186.938 9.83203Q186.219 10.6719 186.219 12.1484Q186.219 13.5703 186.945 14.3906Q187.672 15.2109 188.891 15.2109Q190.133 15.2109 190.801 14.4063Q191.469 13.6016 191.469 12.1172Q191.469 10.6172 190.801 9.80469Q190.133 8.99219 188.891 8.99219ZM209 11.3359Q208.992 10.2266 208.465 9.60938Q207.938 8.99219 207 8.99219Q206.094 8.99219 205.461 9.64063Q204.828 10.2891 204.68 11.3359L209 11.3359ZM231.477 12.8359L231.477 11.7188Q231.477 10.5469 232.156 9.76953Q232.836 8.99219 233.953 8.99219Q235.008 8.99219 235.625 9.75Q236.242 10.5078 236.242 11.8438Q236.242 13.4297 235.582 14.3203Q234.922 15.2109 233.758 15.2109Q232.766 15.2109 232.121 14.5195Q231.477 13.8281 231.477 12.8359ZM293.023 12.4844L293.023 11.3047Q293.023 10.3359 292.383 9.66406Q291.742 8.99219 290.758 8.99219Q289.586 8.99219 288.914 9.85156Q288.242 10.7109 288.242 12.2266Q288.242 13.6094 288.887 14.4102Q289.531 15.2109 290.617 15.2109Q291.688 15.2109 292.355 14.4375Q293.023 13.6641 293.023 12.4844ZM320.34 9.60938Q320.867 10.2266 320.875 11.3359L316.555 11.3359Q316.703 10.2891 317.336 9.64063Q317.969 8.99219 318.875 8.99219Q319.813 8.99219 320.34 9.60938ZM384.109 12.4844L384.109 11.3047Q384.109 10.3359 383.469 9.66406Q382.828 8.99219 381.844 8.99219Q380.672 8.99219 380 9.85156Q379.328 10.7109 379.328 12.2266Q379.328 13.6094 379.973 14.4102Q380.617 15.2109 381.703 15.2109Q382.773 15.2109 383.441 14.4375Q384.109 13.6641 384.109 12.4844ZM393.531 11.3047L393.531 12.4844Q393.531 13.6641 392.863 14.4375Q392.195 15.2109 391.125 15.2109Q390.039 15.2109 389.395 14.4102Q388.75 13.6094 388.75 12.2266Q388.75 10.7109 389.422 9.85156Q390.094 8.99219 391.266 8.99219Q392.25 8.99219 392.891 9.66406Q393.531 10.3359 393.531 11.3047ZM29.3359 12.3203L31.2656 12.0547L31.2656 12.8516Q31.2656 13.875 30.6445 14.543Q30.0234 15.2109 29.0703 15.2109Q28.375 15.2109 27.957 14.8398Q27.5391 14.4688 27.5391 13.8828Q27.5391 13.0781 27.9922 12.7617Q28.4453 12.4453 29.3359 12.3203ZM226.5 12.0547L224.57 12.3203Q223.68 12.4453 223.227 12.7617Q222.773 13.0781 222.773 13.8828Q222.773 14.4688 223.191 14.8398Q223.609 15.2109 224.305 15.2109Q225.258 15.2109 225.879 14.543Q226.5 13.875 226.5 12.8516L226.5 12.0547ZM274.727 12.0547L272.797 12.3203Q271.906 12.4453 271.453 12.7617Q271 13.0781 271 13.8828Q271 14.4688 271.418 14.8398Q271.836 15.2109 272.531 15.2109Q273.484 15.2109 274.105 14.543Q274.727 13.875 274.727 12.8516L274.727 12.0547Z" />
        </g>
        <g id="to-homescreen." fill="#FFFFFF">
          <path d="M25.8359 37.1016L27.1172 37.1016L27.1172 32.1719Q27.1172 28.9141 24.4141 28.9141Q22.7109 28.9141 21.7891 30.4297L21.7578 30.4297L21.7578 25.2578L20.4766 25.2578L20.4766 37.1016L21.7578 37.1016L21.7578 32.5703Q21.7578 31.4375 22.3984 30.7148Q23.0391 29.9922 23.9766 29.9922Q25.8359 29.9922 25.8359 32.4922L25.8359 37.1016ZM5.00781 37.0234Q4.55469 37.2734 3.8125 37.2734Q1.71094 37.2734 1.71094 34.9297L1.71094 30.1953L0.335938 30.1953L0.335938 29.1016L1.71094 29.1016L1.71094 27.1484L2.99219 26.7344L2.99219 29.1016L5.00781 29.1016L5.00781 30.1953L2.99219 30.1953L2.99219 34.7031Q2.99219 35.5078 3.26563 35.8516Q3.53906 36.1953 4.17188 36.1953Q4.65625 36.1953 5.00781 35.9297L5.00781 37.0234ZM10.0625 37.2891Q8.28906 37.2891 7.23047 36.168Q6.17188 35.0469 6.17188 33.1953Q6.17188 31.1797 7.27344 30.0469Q8.375 28.9141 10.25 28.9141Q12.0391 28.9141 13.043 30.0156Q14.0469 31.1172 14.0469 33.0703Q14.0469 34.9844 12.9648 36.1367Q11.8828 37.2891 10.0625 37.2891ZM32.875 37.2891Q31.1016 37.2891 30.043 36.168Q28.9844 35.0469 28.9844 33.1953Q28.9844 31.1797 30.0859 30.0469Q31.1875 28.9141 33.0625 28.9141Q34.8516 28.9141 35.8555 30.0156Q36.8594 31.1172 36.8594 33.0703Q36.8594 34.9844 35.7773 36.1367Q34.6953 37.2891 32.875 37.2891ZM48.9844 37.1016L50.2656 37.1016L50.2656 32.1719Q50.2656 28.9141 47.625 28.9141Q45.8594 28.9141 44.9688 30.5703Q44.7422 29.8281 44.1328 29.3711Q43.5234 28.9141 42.7031 28.9141Q41.0703 28.9141 40.2188 30.3672L40.1875 30.3672L40.1875 29.1016L38.9063 29.1016L38.9063 37.1016L40.1875 37.1016L40.1875 32.5391Q40.1875 31.4063 40.7344 30.6992Q41.2813 29.9922 42.125 29.9922Q43.9453 29.9922 43.9453 32.3516L43.9453 37.1016L45.2266 37.1016L45.2266 32.5391Q45.2266 31.4922 45.8008 30.7422Q46.375 29.9922 47.1953 29.9922Q48.1641 29.9922 48.5742 30.5859Q48.9844 31.1797 48.9844 32.5078L48.9844 37.1016ZM59.1172 33.4219L53.4688 33.4219Q53.5 34.7578 54.1875 35.4844Q54.875 36.2109 56.0781 36.2109Q57.4297 36.2109 58.5625 35.3203L58.5625 36.5234Q57.5078 37.2891 55.7734 37.2891Q54.0781 37.2891 53.1094 36.1992Q52.1406 35.1094 52.1406 33.1328Q52.1406 31.2656 53.1992 30.0898Q54.2578 28.9141 55.8281 28.9141Q57.3984 28.9141 58.2578 29.9297Q59.1172 30.9453 59.1172 32.75L59.1172 33.4219ZM60.5703 35.4375L60.5703 36.8125Q61.4766 37.2891 62.7109 37.2891Q63.3359 37.2891 63.9063 37.1484Q64.4766 37.0078 64.9141 36.7188Q65.3516 36.4297 65.6133 35.9922Q65.875 35.5547 65.875 34.9609Q65.875 34.4766 65.7148 34.125Q65.5547 33.7734 65.2578 33.5039Q64.9609 33.2344 64.5391 33.0195Q64.1172 32.8047 63.5859 32.6016Q63.1875 32.4453 62.875 32.3125Q62.5625 32.1797 62.3438 32.0156Q62.125 31.8516 62.0117 31.6406Q61.8984 31.4297 61.8984 31.1172Q61.8984 30.8672 62.0117 30.6602Q62.125 30.4531 62.332 30.3047Q62.5391 30.1563 62.8281 30.0742Q63.1172 29.9922 63.4766 29.9922Q64.625 29.9922 65.5078 30.5703L65.5078 29.2734Q64.6875 28.9141 63.6484 28.9141Q63.0625 28.9141 62.5117 29.0625Q61.9609 29.2109 61.5313 29.5039Q61.1016 29.7969 60.8438 30.2305Q60.5859 30.6641 60.5859 31.2266Q60.5859 31.6875 60.7227 32.0313Q60.8594 32.375 61.1289 32.6445Q61.3984 32.9141 61.8008 33.1289Q62.2031 33.3438 62.7344 33.5547Q63.1172 33.7031 63.4492 33.8398Q63.7813 33.9766 64.0273 34.1484Q64.2734 34.3203 64.418 34.543Q64.5625 34.7656 64.5625 35.0859Q64.5625 36.2109 62.875 36.2109Q61.6172 36.2109 60.5703 35.4375ZM73.2969 36.7344Q72.375 37.2891 71.1094 37.2891Q69.3984 37.2891 68.3477 36.1758Q67.2969 35.0625 67.2969 33.2891Q67.2969 31.3125 68.4297 30.1133Q69.5625 28.9141 71.4531 28.9141Q72.5078 28.9141 73.3125 29.3047L73.3125 30.6172Q72.4219 29.9922 71.4063 29.9922Q70.1797 29.9922 69.3945 30.8711Q68.6094 31.75 68.6094 33.1797Q68.6094 34.5859 69.3477 35.3984Q70.0859 36.2109 71.3281 36.2109Q72.375 36.2109 73.2969 35.5156L73.2969 36.7344ZM87.2266 33.4219L81.5781 33.4219Q81.6094 34.7578 82.2969 35.4844Q82.9844 36.2109 84.1875 36.2109Q85.5391 36.2109 86.6719 35.3203L86.6719 36.5234Q85.6172 37.2891 83.8828 37.2891Q82.1875 37.2891 81.2188 36.1992Q80.25 35.1094 80.25 33.1328Q80.25 31.2656 81.3086 30.0898Q82.3672 28.9141 83.9375 28.9141Q85.5078 28.9141 86.3672 29.9297Q87.2266 30.9453 87.2266 32.75L87.2266 33.4219ZM89.9453 33.4219L95.5938 33.4219L95.5938 32.75Q95.5938 30.9453 94.7344 29.9297Q93.875 28.9141 92.3047 28.9141Q90.7344 28.9141 89.6758 30.0898Q88.6172 31.2656 88.6172 33.1328Q88.6172 35.1094 89.5859 36.1992Q90.5547 37.2891 92.25 37.2891Q93.9844 37.2891 95.0391 36.5234L95.0391 35.3203Q93.9063 36.2109 92.5547 36.2109Q91.3516 36.2109 90.6641 35.4844Q89.9766 34.7578 89.9453 33.4219ZM104.172 37.1016L102.891 37.1016L102.891 32.5391Q102.891 29.9922 101.031 29.9922Q100.07 29.9922 99.4414 30.7148Q98.8125 31.4375 98.8125 32.5391L98.8125 37.1016L97.5313 37.1016L97.5313 29.1016L98.8125 29.1016L98.8125 30.4297L98.8438 30.4297Q99.75 28.9141 101.469 28.9141Q102.781 28.9141 103.477 29.7617Q104.172 30.6094 104.172 32.2109L104.172 37.1016ZM78.4375 30.1406Q79.0703 30.1406 79.4063 30.3984L79.4063 29.0703Q79.1406 28.9609 78.6406 28.9609Q77.9453 28.9609 77.3828 29.4336Q76.8203 29.9063 76.5469 30.75L76.5156 30.75L76.5156 29.1016L75.2344 29.1016L75.2344 37.1016L76.5156 37.1016L76.5156 33.0234Q76.5156 31.6875 77.0664 30.9141Q77.6172 30.1406 78.4375 30.1406ZM10.1563 29.9922Q8.92188 29.9922 8.20313 30.832Q7.48438 31.6719 7.48438 33.1484Q7.48438 34.5703 8.21094 35.3906Q8.9375 36.2109 10.1563 36.2109Q11.3984 36.2109 12.0664 35.4063Q12.7344 34.6016 12.7344 33.1172Q12.7344 31.6172 12.0664 30.8047Q11.3984 29.9922 10.1563 29.9922ZM32.9688 29.9922Q31.7344 29.9922 31.0156 30.832Q30.2969 31.6719 30.2969 33.1484Q30.2969 34.5703 31.0234 35.3906Q31.75 36.2109 32.9688 36.2109Q34.2109 36.2109 34.8789 35.4063Q35.5469 34.6016 35.5469 33.1172Q35.5469 31.6172 34.8789 30.8047Q34.2109 29.9922 32.9688 29.9922ZM57.8047 32.3359Q57.7969 31.2266 57.2695 30.6094Q56.7422 29.9922 55.8047 29.9922Q54.8984 29.9922 54.2656 30.6406Q53.6328 31.2891 53.4844 32.3359L57.8047 32.3359ZM85.9141 32.3359Q85.9063 31.2266 85.3789 30.6094Q84.8516 29.9922 83.9141 29.9922Q83.0078 29.9922 82.375 30.6406Q81.7422 31.2891 81.5938 32.3359L85.9141 32.3359ZM93.7461 30.6094Q94.2734 31.2266 94.2813 32.3359L89.9609 32.3359Q90.1094 31.2891 90.7422 30.6406Q91.375 29.9922 92.2813 29.9922Q93.2188 29.9922 93.7461 30.6094ZM106.418 37.0156Q106.672 37.2734 107.031 37.2734Q107.398 37.2734 107.656 37.0156Q107.914 36.7578 107.914 36.3984Q107.914 36.0391 107.656 35.7773Q107.398 35.5156 107.031 35.5156Q106.672 35.5156 106.418 35.7773Q106.164 36.0391 106.164 36.3984Q106.164 36.7578 106.418 37.0156Z" />
        </g>
      </g>
      <g id="share-file-svgrepo-com" transform="translate(241.99997 0)">
        <path d="M0 0L23.3 0L23.3 23.3L0 23.3L0 0Z" id="Background" fill="none" fill-rule="evenodd" stroke="none" />
        <g clip-path="url(#mask_1)">
          <g id="Group" transform="translate(4.369171 2.098938)">
            <path d="M0.893062 4.15772L3.26291 1.78787L3.26291 11.5399C3.26291 11.8265 3.50059 12.0642 3.78721 12.0642C4.07383 12.0642 4.31151 11.8265 4.31151 11.5399L4.31151 1.78787L6.68136 4.15772C6.78622 4.26258 6.91904 4.31151 7.05187 4.31151C7.18469 4.31151 7.31751 4.26258 7.42237 4.15772C7.6251 3.95499 7.6251 3.61943 7.42237 3.4167L4.15772 0.152048C3.95499 -0.0506826 3.61943 -0.0506826 3.4167 0.152048L0.152048 3.4167C-0.0506824 3.61943 -0.0506824 3.95499 0.152048 4.15772C0.354778 4.36045 0.683341 4.36045 0.893062 4.15772L0.893062 4.15772Z" transform="translate(3.4971008 0)" id="Shape" fill="#0B74F2" fill-rule="evenodd" stroke="none" />
            <path d="M14.0373 0L9.73105 0C9.44443 0 9.20675 0.237684 9.20675 0.524302C9.20675 0.810921 9.44443 1.0486 9.73105 1.0486L13.513 1.0486L13.513 12.6392L1.0486 12.6392L1.0486 1.0486L4.83057 1.0486C5.11719 1.0486 5.35487 0.810921 5.35487 0.524302C5.35487 0.237684 5.11719 0 4.83057 0L0.524302 0C0.237684 0 0 0.237684 0 0.524302L0 13.1635C0 13.4501 0.237684 13.6878 0.524302 13.6878L14.0373 13.6878C14.3239 13.6878 14.5616 13.4501 14.5616 13.1635L14.5616 0.524302C14.5616 0.230693 14.3309 0 14.0373 0L14.0373 0Z" transform="translate(0 5.4230347)" id="Shape" fill="#0B74F2" fill-rule="evenodd" stroke="none" />
          </g>
        </g>
      </g>
      <g id="add-02" transform="translate(336.68 0.75427246)">
        <path d="M0 0L25.32 0L25.32 25.32L0 25.32L0 0Z" id="Background" fill="none" fill-rule="evenodd" stroke="none" />
        <g clip-path="url(#mask_2)">
          <path d="M15.2564 4.82597e-07L11.3299 0L11.3299 1.13945L14.6875 1.13945L14.6875 13.7318L1.13945 13.7318L1.13945 1.13945L11.3299 1.13945L11.3299 4.82597e-07L0.569723 4.82597e-07C0.255074 4.82597e-07 0 0.255074 0 0.569723L0 14.3023C0 14.617 0.255074 14.872 0.569723 14.872L15.2564 14.872C15.4077 14.8722 15.5528 14.8123 15.6598 14.7054C15.7668 14.5986 15.8269 14.4536 15.8269 14.3023L15.8269 0.569723C15.8269 0.418491 15.7668 0.273464 15.6598 0.166599C15.5528 0.0597332 15.4077 -0.000201781 15.2564 4.82597e-07L15.2564 4.82597e-07Z" transform="translate(4.759094 5.5999756)" id="Shape" fill="#0B74F2" fill-rule="evenodd" stroke="none" />
          <path d="M6.37507e-05 0.341546L6.37507e-05 7.82619C-0.00451471 8.13996 0.239022 8.40158 0.552316 8.41946C0.70642 8.42419 0.85586 8.36625 0.966513 8.25889C1.07717 8.15154 1.13958 8.00391 1.13951 7.84974L1.13951 0.295967L1.13951 0.295967C1.01408 0.11691 0.811652 0.00738349 0.593149 0.000359322C0.374646 -0.00666543 0.165597 0.089633 0.0289301 0.260265L0.0289301 0.260265C0.0103844 0.283309 0.00020748 0.311965 6.37507e-05 0.341546L6.37507e-05 0.341546Z" transform="translate(12.102356 8.981445)" id="Shape" fill="#0B74F2" fill-rule="evenodd" stroke="none" />
          <path d="M1.13945 8.07818L1.13945 0.59354C1.14402 0.279767 0.900487 0.0181423 0.587193 0.000268333C0.433089 -0.00445907 0.283649 0.0534712 0.172996 0.160832C0.0623436 0.268192 -7.18644e-05 0.415815 0 0.569991L0 8.12452L1.13945 8.07818Z" transform="translate(12.102417 8.669373)" id="Shape" fill="#0B74F2" fill-rule="evenodd" stroke="none" />
          <path d="M8.07818 6.37508e-05L0.59354 6.37508e-05C0.279769 -0.00451588 0.0181429 0.239021 0.000268333 0.552316C-0.00445965 0.70642 0.0534706 0.855862 0.160831 0.966514C0.268192 1.07717 0.415815 1.13958 0.569991 1.13951L8.12452 1.13951C8.30357 1.01409 8.4131 0.811653 8.42013 0.59315C8.42715 0.374646 8.33085 0.165597 8.16022 0.0289301L8.16022 0.0289301C8.13697 0.0102222 8.10802 3.47732e-05 8.07818 6.37508e-05L8.07818 6.37508e-05Z" transform="translate(8.306274 12.465515)" id="Shape" fill="#0B74F2" fill-rule="evenodd" stroke="none" />
          <path d="M0.0493761 1.13945L7.53402 1.13945C7.84779 1.14403 8.10941 0.90049 8.12729 0.587195C8.13202 0.433091 8.07409 0.28365 7.96673 0.172998C7.85936 0.0623448 7.71174 -7.18645e-05 7.55757 0L0 1.1591e-06L0.0493761 1.13945Z" transform="translate(8.914276 12.465515)" id="Shape" fill="#0B74F2" fill-rule="evenodd" stroke="none" />
        </g>
      </g>
    </g>
  </g>
</svg>